<svg width="45" height="45" viewBox="0 0 45 45" fill="none" xmlns="http://www.w3.org/2000/svg">
<path d="M22.3796 42.9245C19.1462 43.6235 16.0112 44.3008 12.7793 44.9998C13.1077 43.9752 13.3767 43.0345 13.7138 42.1184C13.8976 41.6205 13.8194 41.4165 13.303 41.1864C7.493 38.59 3.41186 34.3251 1.27797 28.3191C-2.80173 16.831 3.21077 4.29951 14.6947 0.219783C14.8075 0.179261 14.9218 0.140185 15.0361 0.104005C15.9027 -0.168073 16.5826 0.102558 16.8141 0.811698C17.0514 1.53386 16.6752 2.13591 15.8173 2.45285C8.51148 5.14903 4.08602 10.3113 2.72467 17.9859C1.20998 26.5274 6.17651 35.5031 14.1753 38.9012C14.6166 39.0893 14.7309 38.9793 14.8509 38.564C15.1215 37.6204 15.4441 36.6942 15.7841 35.6449C18.0062 38.098 20.1589 40.4743 22.3796 42.9245Z" fill="#FB8A05"/>
<path d="M23.303 13.5446C23.303 15.2002 23.3146 16.7893 23.2944 18.3769C23.29 18.7387 23.4738 18.8067 23.7515 18.8805C24.7541 19.1454 25.7292 19.4869 26.6348 19.9992C28.3506 20.9703 29.2692 22.4204 29.236 24.4219C29.2041 26.4075 28.2768 27.8548 26.5625 28.8186C25.7552 29.273 24.8857 29.5567 23.97 29.6566C23.5417 29.7029 23.3768 29.8346 23.4173 30.2731C23.4535 30.6551 23.4477 31.0459 23.4101 31.428C23.345 32.1082 22.8531 32.5582 22.2252 32.5568C21.5713 32.5553 21.0664 32.0647 21.0144 31.3701C20.9739 30.8216 21.2429 30.1095 20.9044 29.7694C20.5803 29.4438 19.8744 29.5089 19.342 29.3758C17.9271 29.0212 16.6251 28.4119 15.4402 27.5624C14.6257 26.9763 14.4377 26.0877 14.9454 25.3684C15.4605 24.639 16.3487 24.5146 17.1719 25.0877C18.2063 25.8098 19.2986 26.3974 20.521 26.7332C20.9478 26.8504 21.159 26.82 21.1431 26.2643C21.1012 24.8431 21.1098 23.4205 21.1417 21.9993C21.1518 21.5709 20.9956 21.419 20.6093 21.3191C19.5358 21.0412 18.4971 20.6577 17.551 20.0644C14.6431 18.2394 14.4565 14.0439 17.1893 11.957C18.1296 11.2392 19.2045 10.8368 20.3706 10.695C20.8104 10.6415 21.0375 10.5445 21.0332 10.0163C21.0288 9.32305 21.6032 8.83244 22.2469 8.84547C22.8748 8.85849 23.3971 9.31147 23.4 9.99891C23.4029 10.53 23.5721 10.6661 24.0785 10.7428C25.3747 10.9396 26.5755 11.4403 27.6793 12.1553C28.4605 12.6618 28.6891 13.4766 28.2638 14.2045C27.8457 14.9195 26.9762 15.1698 26.1863 14.7501C25.2778 14.2682 24.3866 13.7545 23.303 13.5446ZM23.303 22.0239C23.303 23.5869 23.303 25.079 23.3016 26.5711C23.3016 26.7708 23.2813 26.9285 23.5895 26.93C24.4633 26.93 25.6264 26.1326 25.8897 25.3091C26.2167 24.283 25.8825 23.3293 24.9754 22.7287C24.4908 22.4074 23.9598 22.1947 23.303 22.0239ZM21.1301 15.7212C21.1301 15.0714 21.1388 14.4216 21.1243 13.7718C21.1214 13.6199 21.2444 13.3883 20.8928 13.3738C19.8208 13.329 18.6316 14.3377 18.5275 15.4173C18.4074 16.6735 19.5344 17.9529 20.8552 18.0889C21.1937 18.1236 21.1272 17.9196 21.1286 17.7416C21.133 17.0686 21.1301 16.3942 21.1301 15.7212Z" fill="#FB8A05"/>
<path d="M33.3981 9.6324C31.704 6.7915 30.0577 4.03309 28.3303 1.13574C31.678 1.13574 34.8651 1.13574 38.1332 1.13574C37.6413 2.02289 37.1783 2.91004 36.6619 3.76535C36.4174 4.16912 36.4651 4.392 36.8123 4.71762C41.8642 9.43702 44.2426 15.2708 43.9807 22.1711C43.648 30.9732 37.365 39.2006 28.9755 41.8592C28.1176 42.1313 27.4261 41.852 27.2004 41.1428C26.9704 40.4207 27.3538 39.8012 28.2088 39.506C36.6705 36.5956 42.0175 28.7112 41.4967 19.7876C41.2045 14.7671 39.182 10.4964 35.6116 6.95358C35.2542 6.59901 35.0734 6.54547 34.8202 7.05634C34.3963 7.91309 33.9001 8.73367 33.3981 9.6324Z" fill="#FB8A05"/>
</svg>
