<svg width="45" height="45" viewBox="0 0 45 45" fill="none" xmlns="http://www.w3.org/2000/svg">
<path d="M16.2965 18.0142C16.451 16.7111 16.5959 15.2768 16.801 13.8507C16.9173 13.0375 16.7805 12.3623 16.1802 11.7507C15.1998 10.7521 14.2686 9.70344 13.3169 8.67779C12.9723 8.30568 12.6578 7.92952 12.826 7.36393C13.0079 6.75368 13.5193 6.64814 14.043 6.54666C15.4705 6.27062 16.8981 5.99459 18.3257 5.71315C18.9396 5.59272 19.3895 5.25986 19.6985 4.70915C20.4383 3.39123 21.1849 2.07737 21.9547 0.777044C22.5646 -0.252664 23.437 -0.25943 24.0373 0.759454C24.7812 2.02054 25.5086 3.29245 26.2101 4.57655C26.5752 5.24633 27.0975 5.60625 27.8551 5.73886C29.243 5.98241 30.6131 6.3234 32.0024 6.54936C33.3575 6.76856 33.553 7.87675 32.7285 8.66696C31.7002 9.65066 30.784 10.748 29.7858 11.7642C29.2443 12.3149 29.0721 12.9319 29.1705 13.6707C29.3524 15.0319 29.5206 16.3945 29.6819 17.7584C29.7462 18.3024 29.7817 18.8612 29.2375 19.2198C28.7466 19.5445 28.2817 19.3213 27.8195 19.1102C26.541 18.5256 25.2611 17.9411 23.9785 17.366C23.3509 17.0846 22.7314 17.0359 22.0751 17.3457C20.7008 17.9939 19.3143 18.6136 17.9209 19.2198C16.9706 19.6338 16.2705 19.1562 16.2965 18.0142Z" fill="#FB8A05"/>
<path d="M23.0463 32.4844C24.0254 32.4858 25.0044 32.4668 25.9835 32.4885C28.1002 32.5372 29.7521 34.1379 29.8054 36.2176C29.8409 37.6357 29.8218 39.0564 29.8081 40.4758C29.8013 41.1794 29.4936 41.7315 28.866 42.0901C27.3878 42.9344 25.9206 43.7977 24.4288 44.6149C23.488 45.1318 22.498 45.1224 21.5572 44.6041C20.0859 43.7936 18.6365 42.9466 17.1747 42.1185C16.4951 41.7342 16.1916 41.1456 16.1916 40.3879C16.1916 39.0361 16.1765 37.683 16.1984 36.3326C16.234 34.1352 17.8926 32.5101 20.1092 32.4844C21.0869 32.4736 22.0673 32.4831 23.0463 32.4844Z" fill="#FB8A05"/>
<path d="M35.1968 28.5357C36.1526 28.5357 37.1084 28.5424 38.0629 28.5343C40.5734 28.514 42.7011 30.7575 41.7808 33.967C41.6017 34.5908 41.1641 35.0563 40.5871 35.3864C38.3432 36.6678 36.1088 37.9654 33.8567 39.2333C32.905 39.7691 32.1407 39.3036 32.1133 38.213C32.0914 37.3592 32.116 36.5 32.0395 35.6503C31.8822 33.8953 31.0303 32.5043 29.6356 31.4286C28.8343 30.8102 28.8001 30.3082 29.5467 29.6141C30.2687 28.943 31.1192 28.5506 32.1242 28.5451C33.1484 28.5397 34.1712 28.5438 35.1954 28.5438C35.1968 28.5411 35.1968 28.5384 35.1968 28.5357Z" fill="#FB8A05"/>
<path d="M10.819 28.5398C11.8199 28.5398 12.8222 28.533 13.8232 28.5411C14.9554 28.5506 15.9016 28.9849 16.6496 29.8198C17.1582 30.3867 17.1186 30.8508 16.5156 31.3014C14.712 32.6478 13.8546 34.4406 13.8915 36.6665C13.8997 37.1617 13.9011 37.6583 13.8929 38.1535C13.8724 39.3497 13.0766 39.7813 12.0155 39.1724C10.324 38.2036 8.63251 37.2321 6.94104 36.2619C6.58688 36.0589 6.25324 35.8045 5.87584 35.6625C3.26 34.672 3.56767 30.568 5.64201 29.2366C6.28742 28.8226 6.97112 28.5506 7.74644 28.5465C8.77062 28.5425 9.7948 28.5452 10.819 28.5452C10.819 28.5438 10.819 28.5425 10.819 28.5398Z" fill="#FB8A05"/>
<path d="M14.9845 23.3982C14.9435 25.6809 13.0551 27.4873 10.751 27.448C8.45655 27.4101 6.62834 25.5388 6.65159 23.2521C6.67483 20.9735 8.59876 19.1765 10.9657 19.2225C13.2301 19.2685 15.0255 21.1331 14.9845 23.3982Z" fill="#FB8A05"/>
<path d="M35.227 19.2227C37.4996 19.2363 39.3853 21.0995 39.3579 23.3037C39.3292 25.6053 37.4846 27.4469 35.2052 27.4509C32.871 27.455 31.0072 25.6012 31.0127 23.282C31.0182 21.021 32.8983 19.2092 35.227 19.2227Z" fill="#FB8A05"/>
<path d="M27.1535 27.329C27.133 29.5968 25.2433 31.4154 22.9255 31.3978C20.6871 31.3815 18.8356 29.4967 18.8507 27.2492C18.8657 24.9557 20.7267 23.1398 23.0418 23.1628C25.3595 23.1858 27.174 25.0233 27.1535 27.329Z" fill="#FB8A05"/>
</svg>
