<svg width="45" height="45" viewBox="0 0 45 45" fill="none" xmlns="http://www.w3.org/2000/svg">
<g clip-path="url(#clip0_199_442)">
<path d="M44.6233 23.2784C43.8699 22.2515 43.7764 21.1768 44.4731 20.069C44.9766 19.269 44.8756 18.5685 44.137 17.9465C43.2003 17.1576 42.8236 16.1835 43.2409 14.9775C43.5794 13.9984 43.1904 13.401 42.3398 12.844C40.9106 11.9091 40.9131 11.8514 40.8146 10.1522C40.7654 9.29589 40.5573 8.66897 39.6168 8.48739C38.2677 8.2273 37.5008 7.37708 37.262 6.05453C37.1081 5.20186 36.6219 4.79086 35.7626 4.82399C34.3298 4.8792 33.3844 4.17743 32.8156 2.92235C32.487 2.19851 31.9847 1.95927 31.2104 2.16047C30.819 2.2623 30.3931 2.22182 29.9893 2.28561C29.487 2.36536 29.0919 2.25985 28.7288 1.87093C28.3262 1.43908 27.8289 1.09433 27.4165 0.671066C27.1445 0.391342 26.8983 0.370485 26.5548 0.495625C25.7879 0.775349 24.9853 1.27591 24.2406 1.20966C23.4687 1.14218 22.7363 0.52875 22.0063 0.118979C21.6924 -0.0564622 21.4635 -0.0343788 21.1705 0.157011C20.4713 0.615857 19.7893 1.28818 19.0261 1.40841C18.2617 1.52864 17.4037 1.09801 16.5949 0.878405C16.2736 0.791298 16.0496 0.84528 15.8502 1.11028C15.716 1.28818 15.5166 1.42068 15.3922 1.60471C14.6327 2.72851 13.5901 3.18245 12.2557 2.92603C11.4026 2.76164 10.8499 3.07326 10.5705 3.88667C10.1199 5.19941 9.17943 5.88154 7.80811 5.95147C6.91811 5.99686 6.5205 6.47166 6.43433 7.30592C6.29892 8.62235 5.62311 9.51427 4.32688 9.89092C3.41472 10.1559 3.11312 10.7595 3.23745 11.6711C3.40118 12.8746 3.03927 13.8709 1.93015 14.4941C0.987209 15.0241 0.830873 15.797 1.20632 16.7319C1.63471 17.7993 1.49068 18.7476 0.647456 19.5537C-0.148993 20.3143 -0.193309 21.1216 0.443112 21.9976C1.10292 22.9055 1.19278 23.8391 0.576059 24.812C-0.0185087 25.7493 0.0848943 26.575 0.974899 27.2902C1.86737 28.0067 2.10741 28.949 1.75904 30.009C1.40821 31.0776 1.75658 31.7928 2.73275 32.2738C3.74708 32.7743 4.2284 33.5853 4.14469 34.7213C4.06468 35.7997 4.52876 36.4623 5.61942 36.6954C6.73838 36.9334 7.43635 37.6229 7.61608 38.7663C7.7958 39.911 8.50731 40.3539 9.5992 40.322C10.6665 40.2913 11.4518 40.7366 11.863 41.7206C12.3455 42.8738 13.1912 43.1977 14.336 42.8812C15.3356 42.6039 16.1308 42.8836 16.7537 43.6872C17.4886 44.6356 18.3614 44.8699 19.4286 44.243C20.358 43.697 21.248 43.8124 22.0679 44.4761C22.9887 45.2208 23.8565 45.1595 24.696 44.3583C25.4777 43.6124 26.3739 43.4897 27.3279 43.9338C28.405 44.4356 29.2076 44.1792 29.8625 43.2137C30.4423 42.3585 31.2154 41.8641 31.8801 42.0825C33.1985 42.2359 34.0577 42.3144 34.4233 41.1906C34.8406 39.906 35.7552 39.2006 37.1253 39.1503C38.035 39.1172 38.4757 38.6326 38.5594 37.7701C38.6887 36.4438 39.3743 35.5666 40.6669 35.1912C41.5557 34.9324 41.8942 34.3361 41.7538 33.4552C41.5458 32.1474 42.0136 31.1585 43.1572 30.5046C43.9979 30.0249 44.1383 29.3563 43.7973 28.5134C43.3123 27.316 43.5289 26.2585 44.4559 25.3555C45.1181 24.7089 45.1785 24.0366 44.6233 23.2784ZM22.2562 40.9342C12.2704 40.9231 4.00682 32.5657 4.03144 22.5018C4.05606 12.325 12.3443 4.13572 22.5947 4.15657C32.6975 4.17743 40.9402 12.4379 40.9291 22.53C40.918 32.8111 32.6655 40.9452 22.2562 40.9342Z" fill="#FB8A05"/>
<path d="M26.3152 5.5775C19.7146 4.02062 12.4973 6.70621 8.44985 12.1927C6.33747 15.0574 5.29359 18.289 4.98585 21.7929C4.96615 22.0137 5.06586 22.0493 5.26282 22.0751C6.52828 22.2346 6.65137 22.1646 7.04037 20.977C7.06745 20.8936 7.09453 20.809 7.15731 20.6151C7.27056 20.9071 7.38012 21.0862 7.4072 21.2789C7.49829 21.9144 7.8122 22.2051 8.4757 22.0739C8.67512 22.0346 8.88931 22.0677 9.09735 22.0677C9.12566 22.1131 9.15397 22.1573 9.18229 22.2027C8.11871 22.5855 7.81466 23.2737 8.32429 24.3755C7.50199 23.4455 6.74739 23.5939 6.03096 24.335C5.85 23.7485 6.61075 23.3657 6.19098 22.9094C5.89678 22.5904 5.4487 22.41 5.04493 22.1524C4.89845 22.6763 5.19265 23.1314 5.1508 23.5498C5.05355 24.5276 5.27636 25.4416 5.4807 26.3642C7.50076 35.4626 16.5313 41.4067 25.6504 39.6511C35.198 37.8132 41.3209 28.97 39.6652 19.4067C38.4958 12.6565 33.2407 7.21168 26.3152 5.5775ZM29.048 7.43742C29.2819 7.51717 29.5416 7.59201 29.6105 7.92817C29.7521 8.62748 29.9417 9.31697 30.1472 10.1512C30.4353 9.62859 30.6729 9.22864 30.8772 8.81396C31.0089 8.54773 31.1407 8.51706 31.3979 8.66428C31.6515 8.80905 31.766 8.91456 31.585 9.2176C31.1985 9.86538 30.8563 10.5389 30.487 11.1965C30.3947 11.3621 30.3762 11.6713 30.1312 11.6235C29.858 11.5707 29.6462 11.3904 29.581 11.0468C29.4443 10.3267 29.2499 9.61878 29.0529 8.79188C28.7661 9.31697 28.5039 9.74883 28.2897 10.204C28.1444 10.5132 27.9856 10.4837 27.7247 10.3586C27.4206 10.2114 27.4329 10.0617 27.5831 9.79913C27.9585 9.14398 28.2909 8.4643 28.6688 7.81161C28.7525 7.66316 28.7575 7.33805 29.048 7.43742ZM35.1635 21.5156C35.7248 30.4717 28.2971 35.3632 22.3846 35.254C15.2277 35.1215 9.62913 29.2105 9.74731 22.3082C9.86302 15.4905 15.5896 9.81508 22.4905 9.84697C29.6832 9.89114 34.7893 15.5506 35.1635 21.5156ZM25.179 7.82879C25.5261 6.35901 25.5384 6.36147 27.0131 6.75038C27.151 6.78719 27.2877 6.83013 27.428 6.86202C27.6311 6.90742 27.62 7.02888 27.5646 7.18469C27.5105 7.33559 27.5031 7.51839 27.252 7.43619C27.039 7.36626 26.815 7.32946 26.6008 7.26198C26.3312 7.17733 26.1576 7.17978 26.0739 7.52821C25.9865 7.88768 26.245 7.82879 26.4124 7.88277C26.6069 7.94534 26.8051 7.9981 27.007 8.03368C27.2236 8.07294 27.2667 8.17354 27.2015 8.37597C27.1387 8.56859 27.0981 8.72194 26.8334 8.61153C26.6475 8.53423 26.4346 8.51951 26.2401 8.46062C25.9693 8.37842 25.8376 8.4459 25.7735 8.74525C25.7145 9.02375 25.7452 9.15871 26.0542 9.19919C26.2955 9.22986 26.5269 9.32556 26.767 9.37831C26.9614 9.42125 27.0575 9.501 26.9738 9.71325C26.9061 9.88378 26.8777 10.0973 26.6143 9.96107C26.586 9.95371 26.5663 9.9488 26.5466 9.9439C25.9767 9.79054 25.2011 9.80649 24.8958 9.43598C24.6078 9.08264 25.0497 8.37474 25.179 7.82879ZM23.314 8.95873C23.3977 8.14777 23.4864 7.33559 23.5258 6.52096C23.5455 6.11241 23.7818 6.21302 24.0194 6.21302C24.3074 6.21302 24.4342 6.31116 24.3653 6.61665C24.3247 6.79455 24.3259 6.98103 24.3087 7.16383C24.3099 7.16383 24.3124 7.16383 24.3136 7.16383C24.2631 7.77358 24.1966 8.3821 24.1696 8.99308C24.1548 9.33047 24.0551 9.45438 23.6932 9.42125C23.3571 9.39181 23.2833 9.25931 23.314 8.95873ZM20.2612 6.26822C20.7314 6.25473 21.2053 6.19093 21.6707 6.22774C22.4179 6.28663 22.7428 7.01661 22.2788 7.60427C22.104 7.82634 22.1532 7.89381 22.296 8.0803C22.5311 8.38456 22.7084 8.73421 22.9041 9.06915C22.9312 9.11577 22.9263 9.18202 22.9349 9.23723C22.3477 9.46419 21.9538 9.30348 21.7445 8.7109C21.6977 8.5784 21.6153 8.45572 21.5316 8.34162C21.4146 8.18458 21.2386 8.0803 21.0527 8.14287C20.8397 8.21525 20.9665 8.42136 20.9628 8.56981C20.9591 8.73299 20.9665 8.89739 20.9924 9.0581C21.0367 9.33415 20.969 9.46051 20.6514 9.47278C20.367 9.4826 20.1959 9.4875 20.1762 9.12803C20.1295 8.29254 20.0494 7.45951 19.9731 6.62647C19.9534 6.40072 20.0174 6.27436 20.2612 6.26822ZM16.9744 7.09022C17.4447 6.95527 17.91 6.80559 18.3741 6.65223C18.5723 6.58721 18.6991 6.57003 18.7852 6.8289C18.8812 7.11967 18.7495 7.18101 18.5206 7.23867C18.2842 7.29756 18.0565 7.39325 17.8214 7.45705C17.6293 7.50858 17.6096 7.63249 17.6699 7.78094C17.7241 7.91467 17.7093 8.12692 17.9617 8.09379C18.2104 8.01405 18.4652 7.94043 18.7138 7.84842C18.9453 7.76254 19.0462 7.86069 19.1164 8.06925C19.1853 8.27537 19.1053 8.37597 18.9169 8.42995C18.7212 8.48639 18.5279 8.55754 18.3285 8.59926C18.0552 8.65692 17.9531 8.77347 18.0589 9.06424C18.155 9.32801 18.235 9.49609 18.5636 9.32679C18.7766 9.21759 19.0363 9.20165 19.2616 9.10718C19.4943 9.01026 19.5521 9.14398 19.6051 9.30961C19.6568 9.47156 19.7023 9.6151 19.4586 9.6838C18.9096 9.83961 18.3655 10.0138 17.8238 10.1929C17.5789 10.2739 17.5579 10.1181 17.5075 9.95494C17.2539 9.1403 17.0064 8.32199 16.7282 7.51471C16.631 7.23499 16.7393 7.1577 16.9744 7.09022ZM13.5683 8.77838C14.1185 8.47412 14.6282 8.0852 15.2572 7.97233C15.6536 8.00055 15.9096 8.19685 16.0795 8.53546C16.2679 8.90843 16.2211 9.24213 15.9478 9.54762C15.8666 9.63841 15.7841 9.74637 15.6782 9.79054C15.1033 10.031 15.1193 10.3843 15.4763 10.7953C15.7828 11.1487 15.6425 11.3401 15.2744 11.5032C15.1033 11.5781 14.9999 11.6186 14.8879 11.4161C14.4546 10.6334 14.0065 9.85924 13.5634 9.08264C13.5031 8.97836 13.4046 8.86794 13.5683 8.77838ZM11.2171 11.3621C11.5987 11.4836 11.8621 11.3965 11.7329 10.9131C11.5753 10.3291 11.8215 9.93899 12.357 9.63718C12.5244 10.1083 12.4764 10.5941 12.5023 11.0652C12.5195 11.383 12.602 11.5376 12.954 11.5572C13.5006 11.5891 14.0435 11.6775 14.6036 11.7449C14.3032 12.3645 13.8453 12.5301 13.2384 12.3817C12.7977 12.2737 12.5232 12.3547 12.682 12.9031C12.8543 13.4944 12.6315 13.9263 12.016 14.2698C11.9643 13.6907 11.8929 13.1693 11.8831 12.6479C11.8769 12.3093 11.7464 12.1829 11.4251 12.1572C10.9352 12.1203 10.449 12.0541 9.9098 11.9952C10.2446 11.5081 10.5819 11.1597 11.2171 11.3621ZM8.38091 14.8869C8.13102 14.7409 8.08917 14.6305 8.27135 14.3802C8.55818 13.9864 8.80068 13.5607 9.05057 13.1411C9.16505 12.9497 9.26969 12.8896 9.48142 13.0282C9.68945 13.1644 9.69438 13.2785 9.55528 13.4638C9.4211 13.6417 9.32631 13.8502 9.1946 14.0293C9.04934 14.2269 9.02349 14.3483 9.27707 14.5017C9.51958 14.6489 9.63775 14.5974 9.75839 14.3814C9.8581 14.2048 9.97873 14.0392 10.0748 13.86C10.1745 13.6723 10.2668 13.5668 10.4908 13.7275C10.6656 13.8539 10.7592 13.9582 10.6028 14.1606C10.5031 14.2894 10.4256 14.4342 10.3406 14.5728C10.2089 14.7863 9.98981 14.9568 10.3727 15.1998C10.774 15.4537 10.8552 15.1887 11.0017 14.947C11.1076 14.7728 11.2257 14.6072 11.3304 14.433C11.403 14.3127 11.4904 14.2404 11.6221 14.3336C11.7292 14.4097 11.9052 14.4232 11.9065 14.6526C11.728 14.9311 11.5285 15.2378 11.3341 15.547C10.7998 16.3923 10.7998 16.3923 9.93934 15.8549C9.4211 15.5298 8.90901 15.1949 8.38091 14.8869ZM9.27584 32.2789C8.91147 32.1685 8.70466 31.5415 8.42892 31.1404C8.34768 31.0238 8.27135 30.9036 8.19011 30.787C8.0387 30.5686 8.24427 30.5134 8.35999 30.4177C8.48678 30.3135 8.5951 30.2791 8.70097 30.4595C8.845 30.7048 9.00995 30.9379 9.17121 31.1735C9.23399 31.2667 9.28446 31.4189 9.44202 31.3121C9.57005 31.225 9.74977 31.1907 9.81009 30.9772C9.66606 30.7551 9.52081 30.5122 9.35709 30.2828C9.22783 30.1012 9.14289 29.9712 9.39771 29.7982C9.65868 29.6215 9.751 29.7601 9.86425 29.9479C9.95904 30.1049 10.076 30.2484 10.1597 30.4104C10.2963 30.6717 10.4465 30.6913 10.6853 30.5183C10.8934 30.3674 11.0325 30.2582 10.8133 30.0031C10.6558 29.819 10.5536 29.5884 10.4022 29.3982C10.2446 29.1995 10.3049 29.1025 10.4958 28.9725C10.7026 28.8314 10.817 28.867 10.918 29.0731C10.9352 29.1087 10.9648 29.1393 10.9857 29.1749C11.2873 29.6546 11.8683 30.1675 11.8141 30.6042C11.7575 31.0631 10.9734 31.279 10.5007 31.5882C10.0944 31.8507 9.65991 32.3954 9.27584 32.2789ZM11.8154 34.7461C11.0325 34.5805 10.5154 34.0738 10.2188 33.3634C10.0846 33.0432 10.5093 32.9917 10.6213 32.615C11.0558 33.6603 11.4916 34.0591 12.0431 33.9904C12.554 33.9266 12.842 33.5843 12.9479 33.1168C13.0661 32.5966 12.6734 32.2102 11.632 31.7464C12.0369 31.1575 12.0665 31.1502 12.6672 31.4974C13.6779 32.0814 14.0151 33.1082 13.4772 33.9646C13.0981 34.5707 12.4543 34.8823 11.8154 34.7461ZM15.917 37.6525C15.6462 37.5777 15.4086 37.4317 15.3397 37.0906C15.2018 36.4159 15.0246 35.7497 14.8264 34.9289C14.5285 35.4785 14.286 35.8797 14.0902 36.303C13.9474 36.6109 13.7886 36.5434 13.5683 36.4134C13.3664 36.2956 13.1805 36.2318 13.3615 35.9251C13.764 35.2405 14.121 34.5314 14.5088 33.8382C14.59 33.6935 14.6171 33.4272 14.8448 33.4738C15.075 33.5205 15.2954 33.637 15.3582 33.9302C15.4997 34.5866 15.6647 35.2381 15.821 35.892C15.8432 35.9865 15.8333 36.0969 15.9909 36.1766C16.2322 35.7374 16.4907 35.308 16.7049 34.859C16.8378 34.5817 16.9683 34.5707 17.2169 34.713C17.4607 34.8528 17.6035 34.9485 17.4164 35.2602C17.0298 35.9067 16.6938 36.5827 16.3183 37.2354C16.2248 37.4022 16.2334 37.7396 15.917 37.6525ZM20.1738 35.784C19.9374 36.7115 19.7134 37.5568 19.5115 38.4083C19.4512 38.6635 19.3195 38.677 19.1127 38.6242C18.619 38.4978 18.1254 38.3617 17.6269 38.2598C17.3499 38.2034 17.3917 38.0427 17.4201 37.8525C17.4545 37.6182 17.5924 37.6157 17.7746 37.6685C18.0097 37.736 18.2497 37.7887 18.4849 37.8574C18.7064 37.9212 18.8295 37.8611 18.8788 37.6243C18.9219 37.4182 18.9256 37.2759 18.6634 37.2317C18.4233 37.1912 18.1931 37.0919 17.9531 37.0489C17.6995 37.0035 17.7524 36.8526 17.782 36.687C17.8164 36.4919 17.8915 36.3913 18.1119 36.4662C18.3051 36.5312 18.5095 36.5619 18.7027 36.6269C18.9994 36.7263 19.1287 36.6391 19.2124 36.3275C19.2961 36.0134 19.1915 35.9337 18.9157 35.892C18.6954 35.8589 18.4849 35.7705 18.2657 35.7251C18.0454 35.6797 17.9543 35.5914 18.0159 35.3485C18.0749 35.1154 18.1611 35.0614 18.4012 35.1338C18.8886 35.281 19.3896 35.3877 19.8845 35.5117C20.0655 35.5558 20.2698 35.5865 20.1738 35.784ZM21.6707 36.0723C21.5796 36.8183 21.5229 37.5691 21.4712 38.3187C21.4479 38.6549 21.4922 38.9444 20.9591 38.8917C20.3917 38.8364 20.676 38.4819 20.6268 38.2488C20.6982 37.4869 20.7979 36.7397 20.825 35.9889C20.841 35.5705 21.0773 35.6822 21.3088 35.681C21.5833 35.6797 21.7101 35.7497 21.6707 36.0723ZM24.726 38.8119C24.2557 38.8328 23.783 38.9002 23.3177 38.8647C22.557 38.807 22.2369 38.1065 22.6862 37.4943C22.8352 37.2918 22.8561 37.2072 22.685 37.0121C22.4868 36.7864 22.3576 36.4993 22.2024 36.2355C22.1421 36.1325 22.0929 36.0233 22.0153 35.8724C22.6247 35.6442 23.0174 35.7681 23.2143 36.3545C23.2586 36.487 23.3485 36.6048 23.4273 36.7238C23.5368 36.8906 23.703 36.9925 23.8963 36.9471C24.1782 36.8808 24.0157 36.6477 24.0218 36.4895C24.028 36.3287 24.0046 36.1619 23.9677 36.0036C23.8754 35.6061 24.1671 35.654 24.3985 35.6098C24.6447 35.5632 24.7789 35.6061 24.7986 35.8969C24.8565 36.752 24.9303 37.6059 25.0153 38.4586C25.0374 38.699 24.9549 38.8009 24.726 38.8119ZM28.0644 37.974C27.5597 38.1396 27.0476 38.2795 26.5454 38.4537C26.3312 38.5285 26.2512 38.4549 26.1884 38.2709C26.117 38.0623 26.1318 37.9249 26.3878 37.8685C26.6266 37.8157 26.8531 37.7126 27.0895 37.6513C27.3221 37.5912 27.364 37.4857 27.2938 37.2526C27.2224 37.0182 27.1153 36.9594 26.8987 37.033C26.7054 37.098 26.5048 37.1446 26.3152 37.2182C26.0887 37.3053 25.9508 37.3041 25.8609 37.0207C25.776 36.7508 25.9102 36.7042 26.1034 36.6514C26.2807 36.6036 26.4555 36.5459 26.6315 36.4919C26.8519 36.4257 27.0501 36.3901 26.9147 36.0478C26.8063 35.7754 26.7485 35.6037 26.4149 35.7583C26.213 35.8515 25.9828 35.8809 25.7735 35.9619C25.563 36.0429 25.4523 36.0331 25.3698 35.7803C25.2922 35.5436 25.3316 35.4368 25.5667 35.3902C25.6061 35.3828 25.6406 35.3546 25.68 35.3436C26.2265 35.1829 26.8802 34.7645 27.2889 34.9338C27.7197 35.1117 27.6988 35.9288 27.8822 36.4637C28.0201 36.8686 28.1457 37.2771 28.2946 37.7421C28.366 37.8954 28.1863 37.9335 28.0644 37.974ZM31.2441 36.4183C30.7307 36.6625 30.2802 37.0428 29.7213 37.1041C29.0627 37.1029 28.5863 36.3361 28.8719 35.7705C28.952 35.6123 29.0751 35.4307 29.2265 35.3608C29.8457 35.0724 29.8629 34.6983 29.4604 34.2161C29.2745 33.9928 29.2622 33.8272 29.5699 33.6542C29.874 33.4837 30.0155 33.5192 30.1768 33.8223C30.551 34.524 30.9498 35.2123 31.3561 35.8969C31.4915 36.1263 31.5383 36.2784 31.2441 36.4183ZM33.7885 33.7327C33.4204 33.626 33.0795 33.6333 33.2506 34.2063C33.4266 34.7927 33.1213 35.1608 32.5846 35.4736C32.5366 34.9669 32.4492 34.4921 32.459 34.0186C32.4677 33.6247 32.2904 33.5389 31.9605 33.5143C31.4299 33.4751 30.9018 33.41 30.3184 33.3499C30.6987 32.7721 31.116 32.5071 31.7488 32.7095C32.2498 32.8702 32.4 32.6322 32.2941 32.1636C32.1624 31.5796 32.3396 31.1379 32.917 30.857C33.093 31.3489 33.0487 31.8642 33.0795 32.3635C33.1053 32.7733 33.2666 32.9242 33.6654 32.9414C34.1123 32.9598 34.5579 33.0371 35.0564 33.0935C34.729 33.5843 34.4065 33.9118 33.7885 33.7327ZM36.0966 31.6618C36.0338 31.7673 35.9575 31.8642 35.9046 31.9734C35.7852 32.2175 35.6522 32.139 35.4663 32.0384C35.2534 31.9231 35.2866 31.8164 35.3925 31.6569C35.5722 31.3857 35.7396 31.106 35.9033 30.8435C35.859 30.63 35.6744 30.6005 35.5476 30.511C35.3949 30.4042 35.3334 30.5417 35.2718 30.6361C35.1377 30.841 34.9998 31.0447 34.8841 31.2594C34.761 31.4876 34.6243 31.4446 34.4434 31.3342C34.2624 31.225 34.2304 31.1232 34.3634 30.949C34.4865 30.787 34.564 30.5932 34.6847 30.43C34.8336 30.2276 34.9124 30.0779 34.6207 29.9086C34.3695 29.7626 34.196 29.6939 34.0396 30.0116C33.9411 30.2129 33.7959 30.3895 33.6913 30.587C33.5842 30.7895 33.4734 30.8422 33.2592 30.7097C33.061 30.5858 32.9958 30.4742 33.1619 30.2852C33.189 30.2546 33.205 30.2165 33.2272 30.1822C33.5398 29.7074 33.7651 28.9725 34.191 28.8302C34.6219 28.6866 35.1463 29.3074 35.6214 29.6056C36.0326 29.8632 36.7109 30.0264 36.7712 30.4214C36.8303 30.7932 36.344 31.2459 36.0966 31.6618ZM37.3744 20.7439C37.4938 20.7648 37.5467 20.7599 37.5529 20.7758C37.74 21.1954 37.6883 21.8076 38.0822 22.0162C38.4269 22.1978 38.9439 22.0542 39.4744 22.0542C39.1113 22.518 38.5229 22.6235 38.3493 23.0652C38.1659 23.5301 38.6952 23.9142 38.7358 24.4871C38.273 24.1669 37.9148 23.751 37.4938 23.6749C37.0863 23.6025 36.8229 24.281 36.2025 24.2761C37.0112 23.2197 36.4622 22.6186 35.4713 22.0996C36.6727 22.3156 37.383 21.9671 37.3744 20.7439ZM35.8258 12.8552C36.1483 13.3509 36.4794 13.8416 36.8044 14.3348C36.8254 14.3667 36.8315 14.4084 36.8475 14.4538C36.8032 14.6084 36.6456 14.633 36.5324 14.709C36.3797 14.8108 36.3133 14.6833 36.2493 14.5888C36.1114 14.3864 35.9772 14.1815 35.8529 13.9705C35.7298 13.7619 35.6178 13.6907 35.3777 13.8576C35.1512 14.0158 35.134 14.1287 35.3014 14.3324C35.443 14.5054 35.5353 14.7152 35.6732 14.8918C35.8172 15.0771 35.7396 15.1715 35.5771 15.2758C35.4257 15.3728 35.3002 15.4439 35.1783 15.239C35.0749 15.0636 34.9444 14.9029 34.8472 14.725C34.7081 14.4686 34.5776 14.379 34.2809 14.5692C33.9818 14.7605 34.0089 14.9065 34.1997 15.1409C34.3535 15.3298 34.4729 15.5457 34.612 15.7482C34.7216 15.9077 34.6613 16.0034 34.5086 16.088C34.3683 16.1665 34.244 16.3076 34.1024 16.0868C33.7811 15.5899 33.4611 15.093 33.1275 14.6047C32.9896 14.4035 33.1558 14.3594 33.2653 14.287C34.0002 13.8048 34.7376 13.3276 35.4737 12.8479C35.5956 12.7669 35.7052 12.67 35.8258 12.8552ZM34.3326 12.3522C33.9928 11.7167 33.738 10.961 32.8074 11.1303C32.3458 11.2137 32.0725 11.5683 32.0307 12.0431C31.9814 12.6037 32.4073 12.9963 33.3761 13.3202C33.1213 13.9189 32.7348 13.8625 32.2645 13.5766C31.2071 12.9325 30.9203 11.7915 31.6367 10.9364C32.0602 10.431 32.5981 10.1844 33.2715 10.3672C33.9978 10.5647 34.4766 11.0579 34.7499 11.7241C34.873 12.0259 34.4951 12.14 34.3326 12.3522Z" fill="#FB8A05"/>
<path d="M23.8418 37.5553C23.598 37.5885 23.3334 37.6142 23.3272 37.9418C23.3223 38.235 23.5414 38.2927 23.7815 38.3062C23.9723 38.2829 24.2222 38.3246 24.1495 37.9958C24.1089 37.8081 24.2295 37.5026 23.8418 37.5553Z" fill="#FB8A05"/>
<path d="M21.1223 7.52924C21.3586 7.48998 21.6393 7.48262 21.6344 7.13787C21.6294 6.84711 21.4202 6.77104 21.1764 6.77349C20.9536 6.77718 20.7628 6.83484 20.8748 7.27037C20.8859 7.29736 20.7677 7.58936 21.1223 7.52924Z" fill="#FB8A05"/>
<path d="M14.8877 9.54886C15.0871 9.40654 15.3813 9.35379 15.3727 9.05321C15.3653 8.82624 15.209 8.65939 14.9702 8.71705C14.7794 8.76367 14.4729 8.80661 14.5122 9.07038C14.5369 9.23846 14.6181 9.50592 14.8877 9.54886Z" fill="#FB8A05"/>
<path d="M30.0898 35.5677C29.8756 35.5996 29.6048 35.7297 29.6035 36.0229C29.6023 36.2462 29.7512 36.4155 29.9901 36.3762C30.1919 36.3431 30.4 36.2572 30.5108 36.0241C30.331 35.8732 30.3618 35.5272 30.0898 35.5677Z" fill="#FB8A05"/>
<path d="M26.4993 16.2893C26.3073 16.1237 26.0352 16.0415 25.6844 16.0415C25.4345 16.0415 25.24 16.1004 25.0984 16.2182C24.9569 16.336 24.8867 16.4807 24.8867 16.6513C24.8867 16.9678 25.0911 17.2095 25.4985 17.3763L26.2642 17.6879C26.6126 17.5162 26.7874 17.2598 26.7874 16.9163C26.7874 16.6635 26.6913 16.455 26.4993 16.2893Z" fill="#FB8A05"/>
<path d="M26.0709 19.9744L25.1181 19.6187C24.7304 19.8542 24.5371 20.1437 24.5371 20.4848C24.5371 20.7363 24.6454 20.9486 24.8621 21.1191C25.0787 21.2896 25.3877 21.3755 25.7878 21.3755C26.1103 21.3755 26.3577 21.3154 26.5301 21.1952C26.7012 21.0749 26.7874 20.9191 26.7874 20.7277C26.7874 20.41 26.5485 20.1597 26.0709 19.9744Z" fill="#FB8A05"/>
<path d="M23.1064 28.7748H23.7699L23.4388 27.5884L23.1064 28.7748Z" fill="#FB8A05"/>
<path d="M22.4995 10.2407C15.7057 10.2407 10.1982 15.7297 10.1982 22.5007C10.1982 29.1847 15.5641 34.6184 22.2373 34.7571C22.2668 34.7583 22.2976 34.7583 22.3284 34.7583C22.385 34.7595 22.4429 34.7607 22.4995 34.7607C22.5106 34.7607 22.5217 34.7607 22.5327 34.7607C22.5451 34.7607 22.5574 34.7607 22.5709 34.7607C22.6361 34.7607 22.7002 34.7583 22.7642 34.7571C22.7851 34.7571 22.806 34.7571 22.8269 34.7558C23.8684 34.7301 24.8765 34.5743 25.8379 34.3031C25.8503 34.2994 25.8626 34.297 25.8736 34.2933C25.929 34.2774 25.9844 34.2614 26.0386 34.2442C26.0878 34.2295 26.1383 34.2148 26.1875 34.1988C26.2011 34.1952 26.2134 34.1903 26.2269 34.1866C31.1977 32.6125 34.8008 27.9762 34.8008 22.5007C34.8008 15.7297 29.2933 10.2407 22.4995 10.2407ZM15.3721 21.0027H17.4377V17.0375C16.6523 17.3835 16.0393 17.5872 15.5986 17.6485V15.7726C16.7877 15.5162 17.5952 15.0561 18.0199 14.3912H19.8344V21.0027H21.8089V22.8602H15.3721V21.0027ZM16.8579 28.7418V30.4729H15.6343V28.7418L14.2543 26.385H15.6331L16.352 27.7333L17.0413 26.385H18.143L16.8579 28.7418ZM21.4618 27.3284H19.6104V27.921H21.1073V28.8289H19.6104V29.4963H21.4618V30.4729H18.3757V26.3837H21.4618V27.3284ZM24.2229 30.4729L23.9915 29.6668H22.8922L22.646 30.4729H21.6243L22.891 26.3837H24.2229L25.5093 30.4729H24.2229ZM25.6533 22.989C24.5946 22.989 23.781 22.7756 23.2135 22.3474C22.6448 21.9192 22.3616 21.3598 22.3616 20.6666C22.3616 19.7906 22.7974 19.1612 23.6677 18.7784C22.9685 18.392 22.6189 17.7847 22.6189 16.9578C22.6189 16.229 22.9045 15.6181 23.4744 15.1273C24.0444 14.6366 24.8347 14.3912 25.8441 14.3912C26.7476 14.3912 27.4838 14.5948 28.055 15.0022C28.6249 15.4095 28.9105 15.9493 28.9105 16.6216C28.9105 16.9271 28.8465 17.2117 28.7172 17.4743C28.588 17.7368 28.2925 18.0215 27.8309 18.327C28.7345 18.7833 29.1862 19.4692 29.1862 20.3856C29.1862 21.2162 28.8625 21.8579 28.215 22.3106C27.565 22.7633 26.7119 22.989 25.6533 22.989ZM28.1411 30.4729L27.5416 28.9099H27.144V30.4729H25.8847V26.3837H28.0279C28.5006 26.3837 28.8674 26.4942 29.1296 26.715C29.3906 26.9358 29.5223 27.2266 29.5223 27.5885C29.5223 27.8241 29.4743 28.0326 29.3783 28.213C29.2822 28.3933 29.0878 28.5528 28.7948 28.6902L29.5371 30.4729H28.1411Z" fill="#FB8A05"/>
<path d="M27.7253 27.2534H27.1455V28.0349H27.6834C27.8422 28.0349 27.969 28.0018 28.0651 27.9356C28.1611 27.8693 28.2091 27.7724 28.2091 27.6448C28.2091 27.3835 28.0478 27.2534 27.7253 27.2534Z" fill="#FB8A05"/>
</g>
<defs>
<clipPath id="clip0_199_442">
<rect width="45" height="45" fill="white"/>
</clipPath>
</defs>
</svg>
