<svg width="45" height="45" viewBox="0 0 45 45" fill="none" xmlns="http://www.w3.org/2000/svg">
<g clip-path="url(#clip0_198_430)">
<path d="M22.0082 45.0001C14.3638 45.0001 8.33252 38.9243 8.33105 31.228C8.33105 23.7772 14.526 17.5772 22.1543 17.662C29.5663 17.7438 35.7583 23.9 35.6721 31.5568C35.5888 38.9156 29.4742 45.0001 22.0082 45.0001ZM32.975 31.3406C32.9764 25.3276 27.9913 20.3039 21.9789 20.3667C15.841 20.4296 11.0881 25.2107 11.0267 31.2967C10.9654 37.3404 15.9564 42.3085 21.9716 42.3202C27.9854 42.3319 32.9735 37.3535 32.975 31.3406Z" fill="#FB8A05"/>
<path d="M21.9867 38.8746C19.4182 38.7797 17.3054 37.7436 15.8049 35.562C15.3432 34.8899 15.4163 34.2791 15.9759 33.9167C16.5077 33.5718 16.9884 33.7355 17.4837 34.431C19.7732 37.6428 24.2689 37.6253 26.5423 34.3945C27.0172 33.7209 27.5169 33.5791 28.0619 33.9649C28.5805 34.3331 28.6375 34.9235 28.1919 35.5635C26.7001 37.7071 24.6196 38.7607 21.9867 38.8746Z" fill="#FB8A05"/>
<path d="M15.1672 27.8745C15.1803 26.7713 16.1227 25.8507 17.2258 25.8624C18.3246 25.8741 19.2538 26.8166 19.2509 27.9154C19.248 29.0552 18.2924 29.9831 17.1484 29.9539C16.0204 29.9261 15.1526 29.0157 15.1672 27.8745Z" fill="#FB8A05"/>
<path d="M28.8202 27.9051C28.8216 29.0405 27.9362 29.9435 26.8097 29.9552C25.6672 29.9684 24.7233 29.0259 24.7365 27.8861C24.7496 26.7873 25.6905 25.8594 26.7922 25.8623C27.8924 25.8652 28.8187 26.7975 28.8202 27.9051Z" fill="#FB8A05"/>
<path d="M23.0978 1.10776C23.5902 2.33373 24.2594 3.47349 24.8234 4.66585C24.9125 4.85435 25.0747 4.84704 25.2383 4.87042C26.6906 5.07646 28.1429 5.29418 29.5967 5.48852C30.0014 5.54259 30.2951 5.70917 30.4251 6.10078C30.5566 6.50115 30.3828 6.80363 30.0993 7.08126C29.0868 8.06759 28.0889 9.06853 27.072 10.0505C26.8411 10.2726 26.7432 10.4669 26.8104 10.8089C27.0807 12.1941 27.3013 13.5896 27.5585 14.9792C27.6345 15.3927 27.6053 15.7463 27.2488 16.0152C26.8879 16.2885 26.5387 16.1964 26.1719 16.0021C24.9403 15.3518 23.6954 14.7249 22.4681 14.0674C22.1628 13.9037 21.9348 13.8818 21.6149 14.0601C20.3992 14.7396 19.1573 15.3737 17.9315 16.0357C17.5706 16.23 17.2141 16.3338 16.8459 16.0854C16.45 15.8179 16.4397 15.422 16.5099 15.0026C16.7436 13.629 16.9613 12.2511 17.2141 10.8805C17.2755 10.5488 17.1951 10.3427 16.954 10.1162C15.9386 9.16059 14.9451 8.18011 13.9369 7.21716C13.6403 6.93514 13.4197 6.63413 13.5424 6.20452C13.6739 5.75008 14.0363 5.6098 14.4644 5.54697C15.8086 5.35409 17.1484 5.13929 18.4925 4.95663C18.89 4.90257 19.1354 4.75645 19.3078 4.3663C19.7432 3.37705 20.2356 2.4141 20.7046 1.43946C20.8814 1.07561 21.0582 0.711766 21.235 0.34792C21.5433 0.0469067 21.8925 -0.0948325 22.3206 0.0717476C22.7633 0.279242 22.8071 0.784827 23.0978 1.10776Z" fill="#FB8A05"/>
<path d="M7.87352 8.16412C8.38928 9.21474 8.90942 10.2639 9.41641 11.3189C9.51722 11.5293 9.69255 11.5279 9.87226 11.5527C10.8702 11.693 11.8681 11.842 12.8675 11.9735C13.1933 12.0159 13.4957 12.0758 13.6126 12.4265C13.7368 12.7962 13.5337 13.0475 13.2824 13.2901C12.5709 13.9783 11.8754 14.6841 11.1595 15.3694C10.9535 15.5667 10.8833 15.745 10.9432 16.0387C11.139 17.0089 11.2851 17.988 11.4678 18.9611C11.532 19.3031 11.5715 19.6216 11.2501 19.8569C10.9257 20.0921 10.6306 19.9416 10.3296 19.7824C9.488 19.3381 8.63181 18.9173 7.799 18.457C7.49218 18.2875 7.25841 18.2729 6.94281 18.4512C6.06763 18.9494 5.16615 19.4024 4.27928 19.8803C4.02213 20.0191 3.76936 20.0994 3.50491 19.9168C3.22877 19.7254 3.18493 19.4565 3.24045 19.1394C3.41724 18.1092 3.56627 17.0747 3.75767 16.0489C3.80881 15.7727 3.73868 15.6076 3.54728 15.4279C2.83866 14.763 2.14027 14.0865 1.44187 13.4099C1.19349 13.1688 0.90566 12.9409 1.02985 12.523C1.1555 12.1021 1.51785 12.07 1.86266 12.0174C2.62388 11.899 3.38218 11.7281 4.14778 11.6944C4.93676 11.6594 5.40138 11.3277 5.5884 10.5766C5.885 9.95705 6.18306 9.33749 6.47965 8.71793C6.67398 8.43445 6.75726 8.06476 7.10938 7.90256C7.4089 7.86311 7.6602 7.96247 7.87352 8.16412Z" fill="#FB8A05"/>
<path d="M37.9677 9.5754C38.0495 10.2315 38.5185 10.7108 38.7494 11.2997C38.8414 11.5364 39.0518 11.532 39.2505 11.5583C40.2484 11.6971 41.2463 11.8447 42.2457 11.9747C42.5788 12.0186 42.8506 12.115 42.9675 12.4643C43.0814 12.8033 42.89 13.0254 42.6767 13.2358C41.971 13.9313 41.277 14.6386 40.5494 15.3107C40.282 15.5577 40.2294 15.8017 40.2937 16.1349C40.4764 17.07 40.6385 18.0096 40.8051 18.9477C40.8635 19.2765 40.922 19.6126 40.5976 19.8537C40.2747 20.0919 39.9737 19.9472 39.6742 19.7909C38.8137 19.3408 37.9458 18.9039 37.0969 18.4348C36.8047 18.2726 36.5797 18.2858 36.2933 18.448C35.4473 18.9243 34.5809 19.3642 33.7262 19.8259C33.4238 19.9896 33.1345 20.1299 32.8072 19.8902C32.5004 19.6652 32.5369 19.3525 32.588 19.0398C32.7473 18.0812 32.8992 17.1212 33.0819 16.167C33.1476 15.8222 33.0746 15.5942 32.8086 15.3531C32.1029 14.7131 31.4323 14.0321 30.7427 13.3731C30.4958 13.1379 30.2591 12.9012 30.3716 12.5212C30.4928 12.1077 30.8581 12.0653 31.2044 12.0113C31.9466 11.8973 32.6888 11.7205 33.4354 11.6986C34.3077 11.6737 34.7752 11.2763 34.9608 10.4653C35.0748 10.2636 35.2136 10.0722 35.2355 9.83112C35.4897 9.35183 35.7469 8.87401 35.9996 8.39473C36.3021 7.82485 36.6454 7.75471 37.1743 8.15801C37.4563 8.62414 37.6214 9.15018 37.9677 9.5754Z" fill="#FB8A05"/>
</g>
<defs>
<clipPath id="clip0_198_430">
<rect width="45" height="45" fill="white"/>
</clipPath>
</defs>
</svg>
