<svg width="250" height="60" viewBox="0 0 250 60" fill="none" xmlns="http://www.w3.org/2000/svg">
<g clip-path="url(#clip0_264_761)">
<path d="M45.3831 17.5154C45.3831 22.8964 45.4058 28.2803 45.3632 33.6613C45.3547 34.6963 45.6214 35.0308 46.7053 34.9994C49.6335 34.9107 52.5673 35.0108 55.4983 34.945C56.497 34.9222 56.8801 35.088 56.846 36.2288C56.7524 39.3224 56.7581 42.4218 56.8432 45.5154C56.8744 46.6162 56.5538 46.8249 55.5181 46.8221C45.2582 46.7792 35.0012 46.8278 24.7413 46.7592C23.4219 46.7506 23.1665 47.1681 23.1949 48.3575C23.263 51.3568 23.1892 54.3589 23.2375 57.3582C23.2488 58.1702 23.0275 58.4046 22.2132 58.3932C19.0949 58.3446 15.971 58.3189 12.8527 58.4018C11.6951 58.4332 11.3631 58.1359 11.3688 56.935C11.4199 46.2674 11.3716 35.5969 11.4312 24.9293C11.4397 23.637 11.0992 23.3339 9.86498 23.3768C7.03613 23.4654 4.19593 23.3596 1.36141 23.4225C0.368329 23.4454 -0.0345765 23.291 0.00230926 22.133C0.101617 19.0394 0.0845928 15.94 0.00798398 12.8464C-0.0175523 11.7971 0.223624 11.5112 1.30466 11.5169C11.61 11.5655 21.9181 11.5283 32.2234 11.5741C33.3356 11.5798 33.6591 11.3082 33.6279 10.1731C33.5456 7.17377 33.6279 4.17163 33.5825 1.17234C33.5711 0.360334 33.6761 -0.00850042 34.6266 0.0115139C37.8868 0.0744159 41.1497 0.0658384 44.4127 0.0143731C45.2696 7.71349e-05 45.4001 0.323165 45.3973 1.08371C45.3689 6.55905 45.3831 12.0372 45.3831 17.5154Z" fill="#FF8A01"/>
<path d="M136.043 54.6019C135.794 54.8764 135.745 54.905 135.74 54.9364C135.641 56.0515 136.268 57.5783 135.476 58.1787C134.744 58.7334 133.305 58.3531 132.179 58.3617C130.525 58.3731 128.868 58.3274 127.216 58.3817C126.442 58.4075 126.121 58.233 126.169 57.3724C126.246 56.0429 126.189 54.7077 126.189 53.3724C126.189 36.0858 126.206 18.7963 126.152 1.50967C126.15 0.194448 126.524 -0.0485833 127.713 0.00288204C129.932 0.100094 132.156 0.0886576 134.375 0.00574123C135.45 -0.0342874 135.788 0.223039 135.777 1.37529C135.714 7.65978 135.745 13.9471 135.745 20.2345C135.745 20.5433 135.745 20.8521 135.745 21.3238C136.909 20.3803 137.862 19.4768 138.935 18.7506C146.133 13.8814 155.125 15.4911 160.992 22.6619C168.509 31.8456 167.629 47.1022 159.111 55.3081C152.628 61.5526 143.08 61.5526 136.591 55.3052C136.392 55.1165 136.248 54.8678 136.043 54.6019ZM155.672 37.4553C155.581 34.0129 154.679 30.7849 152.514 27.9743C149.107 23.5511 143.631 23.2509 139.783 27.2881C134.701 32.6147 134.823 42.8764 140.027 48.0829C143.682 51.7398 149.053 51.4453 152.299 47.4167C154.622 44.5318 155.607 41.1837 155.672 37.4553Z" fill="#FF8A01"/>
<path d="M122.127 58.3674C118.696 58.3674 115.484 58.3502 112.275 58.3817C111.62 58.3874 111.478 58.1243 111.47 57.5496C111.461 57.035 111.506 56.4946 111.197 55.9456C107.08 59.105 102.418 60.4689 97.3083 59.8513C91.364 59.1308 86.6653 56.1858 84.6111 50.4274C82.344 44.0686 84.7756 37.8927 92.0677 35.0135C95.7477 33.5582 99.6775 33.3066 103.528 32.6947C105.9 32.3173 108.266 31.9228 110.59 31.288C111.325 31.0879 111.566 30.8248 111.393 30.01C110.003 23.4281 102.637 22.6018 98.971 25.0579C97.609 25.9699 96.9423 27.4253 96.5365 28.9492C96.2556 30.0042 95.7591 30.2015 94.7348 30.0786C92.2975 29.7841 89.8432 29.6583 87.3974 29.4238C85.7489 29.2666 85.7205 29.1922 86.095 27.5139C87.0654 23.1651 89.497 19.9285 93.5403 18.1072C100.024 15.1908 106.703 14.9592 113.351 17.3895C118.793 19.3795 121.355 23.6826 121.355 30.2873C121.355 37.9528 121.284 45.6211 121.222 53.2866C121.207 54.9621 121.304 56.6004 122.127 58.3674ZM111.339 38.6704C109.115 39.6654 106.992 40.2058 104.793 40.5146C102.435 40.8463 100.007 40.8863 97.8275 42.0614C95.8101 43.1508 94.5816 45.1093 94.8086 46.9192C95.0412 48.792 96.6216 50.4303 98.7979 51.0107C102.118 51.8942 105.207 51.1879 108.161 49.5954C109.98 48.6147 111.067 47.0507 111.424 45.0493C111.79 42.9821 111.569 40.9006 111.339 38.6704Z" fill="#FF8A01"/>
<path d="M210.064 37.321C210.277 27.3596 216.241 19.1395 225.536 16.3718C234.692 13.6441 244.033 17.8185 248.93 26.0673C249.336 26.7506 249.038 26.9393 248.53 27.2395C246.306 28.5548 244.081 29.8757 241.893 31.2538C241.108 31.7485 240.798 31.6427 240.341 30.7935C238.279 26.9679 235.155 24.6691 230.709 24.7635C227.46 24.8321 224.892 26.4218 222.883 28.9693C218.948 33.9586 219.104 41.6555 223.255 46.4647C228.345 52.3632 236.817 51.1252 240.534 43.8771C241.073 42.8249 241.425 42.6734 242.461 43.2167C244.7 44.3918 247.015 45.4239 249.319 46.4647C250.105 46.8192 250.145 47.1681 249.773 47.9372C243.917 60.0716 229.27 63.7399 218.607 55.717C213.185 51.637 209.908 44.5833 210.064 37.321Z" fill="#FF8A01"/>
<path d="M75.5281 41.7386C75.5281 46.8794 75.5054 52.0203 75.5479 57.1611C75.5565 58.1075 75.4174 58.4534 74.3477 58.402C71.9445 58.2904 69.5271 58.3105 67.121 58.3934C66.1024 58.4277 65.8896 58.1132 65.8924 57.1296C65.9293 46.9423 65.8896 36.7551 65.9463 26.5678C65.9548 25.2068 65.6285 24.7608 64.2467 24.8294C62.8564 24.898 60.9809 25.487 60.1808 24.5807C59.4941 23.8001 59.951 21.9559 59.985 20.5807C60.0134 19.4599 59.4771 17.9731 60.2205 17.3212C60.8476 16.7694 62.2833 17.1296 63.3615 17.1239C65.9123 17.1096 65.8669 17.1182 65.9264 14.5964C65.9804 12.3176 65.6995 10.036 66.0655 7.76007C66.7748 3.33405 70.2392 0.168935 74.6911 0.0517083C77.6646 -0.0254897 80.6438 0.0602858 83.6202 0.0145388C84.3863 0.00310211 84.5622 0.248992 84.5452 0.986662C84.4941 3.17394 84.4856 5.36693 84.5537 7.55421C84.5764 8.26901 84.3977 8.45771 83.7224 8.4377C82.4966 8.40339 81.2652 8.43484 80.0366 8.46057C77.0432 8.52347 75.4997 10.0732 75.5366 13.0553C75.5536 14.3705 74.9606 16.0631 75.7976 16.8923C76.5666 17.6557 78.2264 17.081 79.4947 17.1125C80.8652 17.1468 82.2356 17.1439 83.6061 17.1067C84.2104 17.0896 84.4374 17.264 84.4289 17.9016C84.3948 19.9488 84.3835 21.996 84.4317 24.0431C84.4487 24.7922 84.1366 24.8866 83.5067 24.878C81.2851 24.8466 79.0634 24.9209 76.8446 24.8408C75.8033 24.8037 75.4827 25.0639 75.494 26.1704C75.565 31.3598 75.5281 36.5492 75.5281 41.7386Z" fill="#FF8A01"/>
<path d="M179.128 23.2335C180.947 21.4351 182.44 19.7854 184.363 18.6274C186.727 17.2064 189.286 16.8404 191.979 17.032C192.705 17.0834 192.912 17.3693 192.901 18.0927C192.856 20.7089 192.847 23.3307 192.904 25.9469C192.921 26.7846 192.631 27.0134 191.86 26.9962C183.799 26.8189 179.109 33.7525 179.126 40.2886C179.14 45.9526 179.1 51.6167 179.157 57.2807C179.168 58.3386 178.933 58.6646 177.843 58.6188C175.579 58.5216 173.306 58.5559 171.042 58.6074C170.222 58.6274 169.898 58.4787 169.898 57.538C169.932 44.686 169.93 31.8311 169.901 18.9791C169.898 18.127 170.191 17.9583 170.957 17.9726C173.366 18.0155 175.777 18.0155 178.186 17.9726C178.927 17.9583 179.179 18.1728 179.145 18.9305C179.086 20.2514 179.128 21.5695 179.128 23.2335Z" fill="#FF8A01"/>
<path d="M196.659 37.9874C196.659 31.6114 196.684 25.2354 196.633 18.8594C196.625 17.8044 196.863 17.467 197.95 17.507C200.356 17.5957 202.767 17.5671 205.173 17.5185C205.996 17.5013 206.317 17.6672 206.314 18.5993C206.283 31.5885 206.286 44.5807 206.308 57.5699C206.311 58.3705 206.11 58.6307 205.29 58.6135C202.787 58.5592 200.282 58.5449 197.782 58.6193C196.795 58.6479 196.636 58.2905 196.642 57.4012C196.676 50.9309 196.659 44.4577 196.659 37.9874Z" fill="#FF8A01"/>
<path d="M201.53 0.0345542C202.85 0.0345542 204.172 0.0602869 205.491 0.0231175C206.09 0.00596236 206.306 0.166077 206.297 0.812253C206.263 3.5199 206.26 6.22755 206.3 8.9352C206.311 9.66715 206.019 9.79009 205.384 9.78438C202.79 9.75578 200.197 9.74435 197.604 9.79009C196.852 9.80153 196.639 9.57851 196.653 8.82655C196.696 6.21611 196.696 3.59996 196.653 0.989522C196.642 0.26043 196.792 -0.0197703 197.572 0.0173991C198.886 0.0803012 200.208 0.0345542 201.53 0.0345542Z" fill="#FF8A01"/>
</g>
<defs>
<clipPath id="clip0_264_761">
<rect width="250" height="60" fill="white"/>
</clipPath>
</defs>
</svg>
