<svg width="60" height="60" viewBox="0 0 60 60" fill="none" xmlns="http://www.w3.org/2000/svg">
<g clip-path="url(#clip0_264_717)">
<path d="M0 27.9032C0 27.745 0 27.5827 0 27.4245C0.297304 27.381 0.221987 27.1476 0.237844 26.9577C0.281448 26.4829 0.301268 26.0042 0.38055 25.5374C0.792812 23.0371 1.46274 20.6158 2.46564 18.2817C3.86892 15.0099 5.79545 12.0783 8.21749 9.48305C9.49392 8.1142 10.9249 6.90756 12.4511 5.80773C16.9701 2.54385 21.9926 0.676513 27.5502 0.241329C27.7286 0.225504 27.9268 0.257154 27.9585 0C28.1567 0 28.3589 0 28.5571 0C29.5164 0.197811 30.4757 0.197811 31.439 0C31.6372 0 31.8393 0 32.0375 0C32.0692 0.257154 32.2635 0.225504 32.4458 0.237373C34.6379 0.383753 36.7785 0.803112 38.8755 1.45193C43.6364 2.9276 47.7669 5.45167 51.2751 8.9727C53.713 11.4176 55.6633 14.2107 57.1181 17.352C58.4025 20.1174 59.2666 22.9896 59.671 26.0121C59.7225 26.388 59.5085 26.9062 59.996 27.1871C59.996 27.3058 59.996 27.4285 59.996 27.5471C59.8652 27.646 59.8771 27.7885 59.8771 27.9269C59.8771 29.3512 59.8771 30.7754 59.8771 32.1997C59.8771 32.3381 59.8692 32.4805 59.996 32.5795C59.996 32.6981 59.996 32.8208 59.996 32.9395C59.7384 32.9711 59.7701 33.165 59.7542 33.343C59.6036 35.2262 59.1993 37.0618 58.6364 38.8619C57.4749 42.5847 55.6514 45.9554 53.1818 48.974C52.7894 49.4527 52.496 50.062 51.8618 50.3112C51.8103 50.2044 51.7508 50.0976 51.7151 49.9868C50.2999 45.8209 47.9215 42.3276 44.4252 39.6334C41.4006 37.3032 37.9955 35.8117 34.194 35.2895C34.1028 34.9374 34.0156 34.5853 33.9244 34.2331C33.7896 33.5329 33.6549 32.8287 33.5201 32.1284C35.4981 31.5034 36.5248 30.0673 36.9847 28.1247C37.274 26.8983 37.2067 25.6719 37.0719 24.4376C37.2067 24.4019 37.3375 24.3624 37.4722 24.3268C38.6298 24.034 39.601 22.9738 39.7119 21.8779C39.8745 20.2796 39.2799 19.0452 38.1263 18.4241C37.2503 17.9533 36.3583 18.0641 35.4506 18.2105C35.3356 17.9494 35.2207 17.6882 35.1057 17.4311C35.2563 17.1265 35.0621 16.9524 34.8639 16.7783C34.8679 16.7348 34.8679 16.6873 34.8718 16.6438C36.4971 15.7576 37.4881 14.3967 37.8687 12.6006C38.1105 11.4572 38.1422 10.3059 37.9281 9.15469C37.3613 6.09653 34.6816 4.3914 31.6808 5.24594C29.227 5.94619 27.9704 7.79375 27.2291 10.0884C27.0349 10.6897 27.023 11.3227 26.9873 11.9676C25.1044 11.026 23.5743 11.382 22.5912 12.9606C22.0322 13.8547 21.9411 14.8516 22.1194 15.8486C22.2186 16.3906 22.0481 16.5014 21.5883 16.4895C21.4693 16.4856 21.3504 16.5133 21.2315 16.533C19.6102 16.7862 18.8214 17.7792 18.9601 19.4052C19.0513 20.4774 19.4239 21.4585 19.963 22.3843C19.7291 22.681 19.4199 22.9144 19.2376 23.2546C18.3813 24.8648 18.5558 26.4117 19.5745 27.8716C20.5655 29.2879 21.949 29.8299 23.6456 29.5134C24.0222 29.4422 24.1649 29.5332 24.1887 29.8932C24.3155 31.7012 24.4424 33.5092 24.5692 35.3132C23.5307 35.3607 22.504 35.5308 21.4892 35.7167C20.1017 35.9739 18.6826 36.14 17.3784 36.7295C13.7077 38.3911 10.8813 41.1011 8.28092 44.0762C7.36522 45.1246 6.51691 46.2324 5.63689 47.3124C5.39508 47.2135 5.29598 46.984 5.16913 46.7862C4.09884 45.1523 3.13953 43.463 2.3824 41.659C1.23282 38.9134 0.471723 36.0728 0.229915 33.1017C0.225951 32.9197 0.2537 32.7258 0 32.6942C0 32.5359 0 32.3737 0 32.2155C0.174419 32.0889 0.103066 31.9029 0.118922 31.7368C0.0792812 31.6972 0.0396406 31.6577 0 31.6141C0 30.5776 0 29.5371 0 28.5006C0.0396406 28.461 0.0792812 28.4215 0.118922 28.3779C0.103066 28.2157 0.174419 28.0298 0 27.9032Z" fill="#E7E0EE"/>
<path d="M5.64453 47.3086C6.52455 46.2285 7.37286 45.1208 8.28856 44.0724C10.889 41.0973 13.7154 38.3834 17.3861 36.7257C18.6902 36.1362 20.1094 35.9661 21.4968 35.7129C22.5156 35.523 23.5383 35.3569 24.5769 35.3094C24.6126 35.7129 24.6443 36.1204 24.6799 36.5239C24.4223 36.4606 24.1329 36.0611 23.9149 36.4844C23.7167 36.8681 24.1488 36.971 24.3747 37.1253C25.0724 37.5921 25.8097 37.9877 26.5906 38.2924C29.3694 39.3843 32.1324 39.4951 34.8676 38.1539C35.0975 38.0431 35.3908 37.9244 35.2243 37.5842C35.0697 37.2677 34.816 37.4616 34.598 37.5249C34.4632 36.7771 34.3245 36.0294 34.1897 35.2856C37.9952 35.8118 41.3964 37.2994 44.421 39.6296C47.9173 42.3238 50.2957 45.821 51.7109 49.983C51.7505 50.0938 51.81 50.2006 51.8575 50.3074C51.5721 51.0274 50.9299 51.4349 50.3948 51.9255C45.8084 56.1626 40.4292 58.7421 34.2452 59.6678C33.5079 59.7786 32.7428 59.7232 32.0253 59.9962C30.626 59.9962 29.2267 59.9962 27.8274 59.9962C27.7442 59.8379 27.5896 59.8814 27.4587 59.8617C26.4717 59.7272 25.4728 59.6441 24.4976 59.4542C17.7944 58.1724 12.1733 54.9639 7.6107 49.9078C6.88925 49.1047 6.13211 48.3056 5.64453 47.3086Z" fill="#68B5D7"/>
<path d="M59.9981 32.5753C59.8673 32.4764 59.8792 32.3339 59.8792 32.1955C59.8792 30.7712 59.8792 29.347 59.8792 27.9228C59.8792 27.7843 59.8713 27.6419 59.9981 27.543C59.9981 29.2204 59.9981 30.8978 59.9981 32.5753Z" fill="#FEFEFE"/>
<path d="M31.4405 0C30.4812 0.197811 29.5219 0.197811 28.5586 0C29.5219 0 30.4812 0 31.4405 0Z" fill="#FEFEFE"/>
<path d="M0 27.9033C0.174419 28.0299 0.103066 28.2159 0.118922 28.382C0.0792812 28.382 0.0396406 28.382 0 28.382C0 28.2238 0 28.0655 0 27.9033Z" fill="#FEFEFE"/>
<path d="M0.118922 31.7368C0.103066 31.903 0.174419 32.0889 0 32.2155C0 32.0573 0 31.8951 0 31.7368C0.0396406 31.7368 0.0792812 31.7368 0.118922 31.7368Z" fill="#FEFEFE"/>
<path d="M0 28.3818C0.0396406 28.3818 0.0792812 28.3818 0.118922 28.3818C0.0792812 28.4214 0.0396406 28.461 0 28.5045C0 28.461 0 28.4214 0 28.3818Z" fill="#F9F6F5"/>
<path d="M0.118922 31.7369C0.0792812 31.7369 0.0396406 31.7369 0 31.7369C0 31.6973 0 31.6577 0 31.6182C0.0396406 31.6577 0.0792812 31.6973 0.118922 31.7369Z" fill="#F9F6F5"/>
<path d="M34.1966 35.2817C34.3314 36.0294 34.4701 36.7771 34.6049 37.5209C34.4345 37.6158 34.268 37.7345 34.0856 37.8057C30.7122 39.1113 27.6083 38.4506 24.6829 36.52C24.6472 36.1164 24.6155 35.7129 24.5798 35.3054C24.453 33.4974 24.3261 31.6894 24.1993 29.8854C24.1755 29.5254 24.0288 29.4384 23.6562 29.5056C21.9596 29.8221 20.5761 29.2801 19.5851 27.8638C18.5624 26.4039 18.3919 24.857 19.2482 23.2469C19.4305 22.9027 19.7357 22.6693 19.9736 22.3765C20.4136 22.1906 20.8496 22.0007 21.3412 22.0165C21.5314 22.4517 21.8129 22.2934 22.0983 22.1352C23.2915 22.5506 24.4807 22.7563 25.6818 22.1629C25.991 22.1945 26.1694 22.3488 26.2725 22.6574C26.7799 24.1608 28.0999 25.0905 29.523 24.9757C31.0928 24.8491 32.2186 23.8087 32.4921 22.1708C32.5515 21.8108 32.7061 21.7435 33.0074 21.7989C33.4593 22.8671 33.6258 23.9709 33.4038 25.1221C33.3562 25.3595 33.3047 25.6443 33.6377 25.6918C33.9588 25.7393 34.0103 25.4584 34.0539 25.221C34.1808 24.5524 34.1609 23.8799 34.1372 23.2034C34.93 24.0539 35.8813 24.5326 37.0745 24.4416C37.2133 25.676 37.2767 26.9024 36.9873 28.1288C36.5314 30.0713 35.5048 31.5075 33.5227 32.1325C30.9897 32.6824 28.6271 32.0811 26.1971 30.9813C26.879 31.9031 27.6321 32.4965 28.5003 32.9554C30.1969 33.8535 32.0243 34.2016 33.9271 34.2372C34.0182 34.5814 34.1054 34.9296 34.1966 35.2817ZM21.8446 25.5415C21.6266 25.7907 21.3412 25.8501 21.1073 25.9885C20.9408 26.0874 20.7981 26.1982 20.8734 26.4118C20.9923 26.7402 21.2223 26.673 21.4561 26.5543C22.0626 26.2457 22.6453 25.7788 23.3351 26.4158C23.4778 26.5464 23.6919 26.4593 23.7791 26.2615C23.8821 26.0281 23.7315 25.8817 23.5531 25.7709C22.7048 25.2487 21.8525 24.7305 21.0042 24.2082C20.8021 24.0816 20.5761 24.0025 20.4255 24.2399C20.2511 24.5129 20.4493 24.679 20.6673 24.8135C21.0558 25.0509 21.4403 25.2922 21.8446 25.5415ZM32.1036 27.5354C32.3731 27.4958 32.8211 27.6343 32.8369 27.1793C32.8528 26.7244 32.4286 26.8668 32.1512 26.8589C31.4495 26.8431 30.8708 26.5899 30.4625 26.0044C30.3237 25.8065 30.185 25.5573 29.8996 25.7472C29.63 25.9252 29.7489 26.1626 29.8916 26.3723C30.4228 27.1398 31.172 27.484 32.1036 27.5354Z" fill="#F28362"/>
<path d="M21.3392 22.0124C20.8477 21.9966 20.4077 22.1865 19.9716 22.3724C19.4325 21.4506 19.0599 20.4655 18.9687 19.3934C18.83 17.7674 19.6188 16.7744 21.2401 16.5212C21.3591 16.5014 21.478 16.4737 21.5969 16.4777C22.0567 16.4935 22.2272 16.3827 22.1281 15.8368C21.9497 14.8398 22.0409 13.8428 22.5998 12.9487C23.5869 11.3702 25.117 11.0141 26.9959 11.9557C27.0277 11.3108 27.0435 10.6779 27.2378 10.0765C27.9751 7.7819 29.2356 5.93039 31.6894 5.2341C34.6902 4.37956 37.3739 6.08469 37.9367 9.14284C38.1508 10.2941 38.1191 11.4493 37.8773 12.5887C37.4967 14.3848 36.5057 15.7458 34.8805 16.632C34.8567 16.6003 34.825 16.5726 34.8091 16.537C33.8894 14.365 31.0393 14.2147 29.3427 15.9792C29.1683 16.1612 29.1088 16.3352 29.1881 16.5687C29.2713 16.8139 29.4774 16.7348 29.6439 16.7388C29.8857 16.7467 30.1196 16.7783 30.3456 16.8733C30.5359 16.9524 30.6429 17.0869 30.5715 17.2926C30.5081 17.4707 30.3575 17.4984 30.1791 17.4825C29.3585 17.4192 29.3585 17.4192 29.2991 18.258C29.2911 18.3569 29.2832 18.4558 29.2753 18.5547C27.4796 18.7604 26.4251 19.7574 26.1239 21.5693C25.3945 21.2963 24.677 21.0392 23.9159 21.0036C22.9169 20.9601 21.9537 21.059 21.3392 22.0124Z" fill="#020202"/>
<path d="M21.3398 22.0123C21.9582 21.0588 22.9175 20.9599 23.9165 21.0074C24.6776 21.047 25.3951 21.3002 26.1245 21.5731C26.4297 19.7612 27.4802 18.7642 29.2759 18.5585C30.6752 18.6139 31.6504 19.3221 32.3084 20.5208C32.3758 21.1854 32.8277 21.1498 33.3034 21.0707C33.6126 21.1023 33.5729 20.8689 33.6165 20.683C33.7751 19.9511 34.1041 19.3181 34.671 18.8117C34.9207 18.5902 35.2616 18.4912 35.4559 18.2024C36.3636 18.0561 37.2555 17.9453 38.1316 18.4161C39.2851 19.0372 39.8797 20.2676 39.7172 21.8699C39.6062 22.9657 38.635 24.03 37.4775 24.3188C37.3427 24.3544 37.208 24.3939 37.0772 24.4295C35.884 24.5205 34.9326 24.0418 34.1398 23.1912C34.001 22.8668 33.8108 22.5503 33.7394 22.2101C33.6443 21.7472 33.4382 21.6048 33.0061 21.7868C32.7048 21.7314 32.5542 21.7986 32.4907 22.1587C32.2172 23.7965 31.0914 24.8331 29.5217 24.9636C28.0986 25.0783 26.7785 24.1486 26.2711 22.6453C26.1681 22.3367 25.9897 22.1824 25.6805 22.1507C25.0225 21.7986 24.3089 21.6562 23.5716 21.6444C23.0325 21.6364 22.5013 21.6879 22.1009 22.1231C21.8116 22.2892 21.5301 22.4475 21.3398 22.0123ZM34.4212 21.6127C34.1794 21.8303 34.342 22.0558 34.4252 22.2615C34.8494 23.2901 35.769 23.8124 36.9582 23.7135C37.9691 23.5829 38.6747 23.0488 38.9125 22.0558C39.1424 21.0984 39.1068 20.1568 38.2902 19.417C37.5291 18.7286 36.6768 18.5348 35.7135 18.9462C35.4043 19.0372 35.1387 19.1836 34.9841 19.4843C34.6868 19.6109 34.5679 19.8957 34.4569 20.1568C34.2587 20.6316 34.453 21.1261 34.4212 21.6127ZM29.0499 19.2944C27.825 19.3893 27.0243 20.2043 26.8182 21.5613C26.7547 23.1161 27.8726 24.3227 29.379 24.3069C30.0964 24.299 30.6435 23.9548 31.1826 23.4998C32.0111 22.8035 31.7851 21.8659 31.7217 21.0509C31.6385 20.054 30.3462 19.0609 29.0499 19.2944Z" fill="#F9F6F5"/>
<path d="M35.4541 18.2065C35.2598 18.4953 34.915 18.5942 34.6692 18.8157C34.1023 19.3221 33.7733 19.9551 33.6148 20.687C33.5751 20.873 33.6108 21.1103 33.3016 21.0747C32.9567 20.2716 32.7863 20.1767 32.3066 20.5248C31.6486 19.3261 30.6734 18.6179 29.2741 18.5625C29.282 18.4636 29.29 18.3647 29.2979 18.2658C29.3574 17.4271 29.3574 17.4271 30.1779 17.4904C30.3563 17.5062 30.5069 17.4785 30.5704 17.3005C30.6417 17.0948 30.5347 16.9603 30.3444 16.8811C30.1185 16.7862 29.8846 16.7585 29.6428 16.7466C29.4763 16.7387 29.2741 16.8178 29.1869 16.5765C29.1076 16.3431 29.1671 16.169 29.3415 15.987C31.0341 14.2265 33.8883 14.3768 34.8079 16.5448C34.8238 16.5805 34.8555 16.6081 34.8793 16.6398C34.8753 16.6833 34.8714 16.7308 34.8714 16.7743C34.1776 16.4697 33.4879 16.4262 32.81 16.8178C32.6436 16.9167 32.5286 17.0552 32.6237 17.2609C32.6991 17.4231 32.8497 17.5299 33.0122 17.4429C33.6108 17.1185 34.1856 17.1502 34.7723 17.4825C34.8515 17.526 34.9982 17.4469 35.1132 17.4271C35.2242 17.6842 35.3391 17.9454 35.4541 18.2065Z" fill="#EF8261"/>
<path d="M33.9291 34.2291C32.0264 34.1935 30.199 33.8454 28.5023 32.9473C27.6342 32.4884 26.881 31.8949 26.1992 30.9731C28.6292 32.073 30.9918 32.6743 33.5248 32.1244C33.6596 32.8247 33.7944 33.5249 33.9291 34.2291Z" fill="#090504"/>
<path d="M35.1098 17.4273C34.9948 17.4471 34.8482 17.5262 34.7689 17.4827C34.1822 17.1504 33.6114 17.1187 33.0089 17.4431C32.8503 17.5302 32.6957 17.4233 32.6204 17.2611C32.5252 17.0554 32.6402 16.913 32.8067 16.818C33.4845 16.4264 34.1743 16.4659 34.868 16.7745C35.0662 16.9486 35.2644 17.1227 35.1098 17.4273Z" fill="#150C09"/>
<path d="M24.6829 36.5197C27.6123 38.4543 30.7162 39.111 34.0856 37.8055C34.268 37.7343 34.4305 37.6156 34.6049 37.5206C34.823 37.4573 35.0767 37.2635 35.2313 37.58C35.3977 37.9202 35.1044 38.0389 34.8745 38.1497C32.1353 39.4869 29.3724 39.3761 26.5975 38.2881C25.8127 37.9795 25.0753 37.5839 24.3777 37.1211C24.1517 36.9707 23.7196 36.8639 23.9178 36.4801C24.1359 36.0568 24.4252 36.4604 24.6829 36.5197Z" fill="#F8F8F8"/>
<path d="M21.8459 25.5415C21.4455 25.2922 21.057 25.0509 20.6685 24.8135C20.4466 24.679 20.2523 24.5129 20.4267 24.2399C20.5813 24.0025 20.8033 24.0856 21.0055 24.2082C21.8538 24.7305 22.7061 25.2487 23.5544 25.7709C23.7328 25.8817 23.8794 26.0281 23.7803 26.2615C23.6931 26.4593 23.4791 26.5464 23.3364 26.4158C22.6466 25.7789 22.0639 26.2457 21.4574 26.5543C21.2235 26.673 20.9896 26.7402 20.8747 26.4119C20.7994 26.1982 20.9421 26.0874 21.1086 25.9885C21.3424 25.854 21.6239 25.7947 21.8459 25.5415Z" fill="#0F0806"/>
<path d="M33.0039 21.7947C33.436 21.6087 33.6421 21.7551 33.7373 22.218C33.8086 22.5582 33.9989 22.8747 34.1376 23.1991C34.1614 23.8717 34.1812 24.5482 34.0544 25.2168C34.0108 25.4542 33.9592 25.7351 33.6382 25.6876C33.3052 25.6401 33.3567 25.3553 33.4043 25.1179C33.6183 23.9667 33.4518 22.8629 33.0039 21.7947Z" fill="#150C09"/>
<path d="M32.1036 27.5352C31.172 27.4798 30.4188 27.1395 29.8916 26.372C29.7489 26.1624 29.63 25.925 29.8995 25.747C30.185 25.5571 30.3237 25.8063 30.4624 26.0041C30.8707 26.5936 31.4495 26.8428 32.1511 26.8586C32.4286 26.8666 32.8528 26.7241 32.8369 27.1791C32.825 27.638 32.3771 27.4956 32.1036 27.5352Z" fill="#150C09"/>
<path d="M22.0898 22.1313C22.4902 21.6961 23.0214 21.6447 23.5605 21.6526C24.3018 21.6605 25.0114 21.8069 25.6694 22.159C24.4762 22.7484 23.283 22.5427 22.0898 22.1313Z" fill="#150C09"/>
<path d="M29.0469 19.2947C30.3471 19.0613 31.6354 20.0543 31.7147 21.0513C31.7781 21.8662 32.0041 22.8039 31.1756 23.5002C30.6365 23.9551 30.0894 24.2993 29.3719 24.3072C27.8656 24.3191 26.7477 23.1164 26.8112 21.5616C27.8894 21.1304 28.6663 20.4104 29.0469 19.2947ZM30.3312 20.9603C30.3194 20.9603 30.3075 20.9603 30.2956 20.9603C30.2956 20.6596 30.3075 20.3629 30.2916 20.0622C30.2837 19.8881 30.1846 19.7576 29.9943 19.7457C29.804 19.7338 29.6653 19.8525 29.6613 20.0187C29.6494 20.6161 29.6574 21.2135 29.6811 21.8109C29.6891 21.981 29.8238 22.0997 30.0102 22.0918C30.1925 22.0838 30.3154 21.9731 30.3273 21.7911C30.3431 21.5181 30.3312 21.2372 30.3312 20.9603Z" fill="#F18463"/>
<path d="M35.7148 18.9463C36.6781 18.5348 37.5304 18.7287 38.2915 19.417C39.1081 20.1529 39.1438 21.0945 38.9138 22.0558C38.676 23.0449 37.9704 23.579 36.9596 23.7135C36.7217 22.0796 36.2143 20.5129 35.7148 18.9463Z" fill="#E8E0ED"/>
<path d="M35.7174 18.9463C36.2129 20.513 36.7203 22.0757 36.9621 23.7135C35.7729 23.8124 34.8532 23.2942 34.4291 22.2616C34.3418 22.0559 34.1833 21.8304 34.4251 21.6128C34.9404 21.862 35.0871 21.7948 35.0792 21.2646C35.0712 20.6712 35.1228 20.0738 34.9919 19.4883C35.1426 19.1837 35.4082 19.0373 35.7174 18.9463Z" fill="#F18565"/>
<path d="M29.0482 19.2944C28.6716 20.4101 27.8907 21.1341 26.8164 21.5613C27.0186 20.2004 27.8233 19.3894 29.0482 19.2944Z" fill="#0F0806"/>
<path d="M34.9916 19.4844C35.1224 20.0739 35.0709 20.6712 35.0788 21.2607C35.0867 21.7909 34.9401 21.8581 34.4247 21.6089C34.4564 21.1222 34.2622 20.6277 34.4644 20.1569C34.5754 19.8958 34.6903 19.6149 34.9916 19.4844Z" fill="#150C09"/>
<path d="M32.3086 20.5249C32.7882 20.1767 32.9627 20.2717 33.3036 21.0748C32.8279 21.15 32.376 21.1856 32.3086 20.5249Z" fill="#150C09"/>
<path d="M30.3316 20.9599C30.3316 21.2408 30.3435 21.5177 30.3277 21.7986C30.3158 21.9767 30.1929 22.0914 30.0106 22.0993C29.8242 22.1072 29.6895 21.9885 29.6815 21.8184C29.6577 21.221 29.6498 20.6236 29.6617 20.0262C29.6657 19.8601 29.8044 19.7414 29.9947 19.7533C30.185 19.7651 30.2841 19.8957 30.292 20.0698C30.3079 20.3665 30.296 20.6671 30.296 20.9678C30.3079 20.9599 30.3197 20.9599 30.3316 20.9599Z" fill="#1D100C"/>
</g>
<defs>
<clipPath id="clip0_264_717">
<rect width="60" height="60" fill="white"/>
</clipPath>
</defs>
</svg>
