<svg width="60" height="60" viewBox="0 0 60 60" fill="none" xmlns="http://www.w3.org/2000/svg">
<g clip-path="url(#clip0_264_745)">
<path d="M28.4422 0C29.4815 0 30.5233 0 31.5626 0C32.3373 0.185378 33.1361 0.146858 33.9156 0.262419C37.5171 0.794479 40.9383 1.86101 44.1597 3.58719C47.4726 5.36394 50.3549 7.67033 52.7848 10.5184C55.4962 13.6987 57.4811 17.298 58.684 21.3161C59.9206 25.4402 60.3176 29.6413 59.7378 33.9098C59.2397 37.5788 58.121 41.0529 56.3551 44.3247C54.8996 47.0211 53.0543 49.4118 50.8769 51.5424C50.3043 52.101 49.7967 52.7823 49.0004 53.088C48.7862 51.5231 48.6515 49.951 48.3604 48.3958C47.7541 45.1336 46.8519 41.9798 45.175 39.0811C43.9336 36.9384 42.2567 35.4049 39.8268 34.673C37.5797 33.9965 35.3037 33.5029 32.9893 33.1635C32.9412 32.5688 32.8907 31.9718 32.8425 31.3771C35.0968 30.9774 36.2396 29.4366 36.6967 27.3734C37.38 24.2966 36.8315 21.2655 36.0808 18.2658C36.3262 17.9191 36.0905 17.7072 35.8667 17.4906C35.833 17.2667 35.8018 17.0428 35.7681 16.8189C36.6895 15.3021 37.3824 13.6891 37.6519 11.9268C37.9983 9.66375 36.6727 8.35406 34.4088 8.60926C32.5827 8.81631 31.0935 9.70227 29.6981 10.8097C29.4743 10.9855 29.2626 11.1371 28.9619 11.1709C28.4278 11.231 27.8913 11.3105 27.3668 11.4236C24.9874 11.9364 22.6801 12.6467 20.7338 14.1947C19.834 14.9097 18.9968 15.721 18.7995 16.9224C18.4626 18.9736 19.2638 20.7166 20.3729 22.361C20.332 22.5752 20.2983 22.7919 20.2478 23.0038C19.6487 25.4474 21.6697 27.9849 24.1213 27.8164C24.6193 27.7827 24.6457 27.9512 24.6169 28.3316C24.5134 29.7857 24.4268 31.2399 24.333 32.694C23.4211 32.8072 22.5093 32.9011 21.5999 33.0359C16.5668 33.7798 12.5755 36.1392 9.81595 40.5112C8.33875 42.8489 7.03958 45.2708 5.93528 47.8011C5.72838 47.7241 5.66101 47.5219 5.54794 47.363C4.39793 45.7523 3.42355 44.0454 2.61518 42.2374C1.34488 39.3965 0.558162 36.4353 0.211717 33.3416C0.146758 32.759 0.252616 32.1475 0 31.5865C0 30.5056 0 29.4246 0 28.3436C0.149164 28.1992 0.101047 28.0114 0.117888 27.8356C0.204499 26.9641 0.245399 26.083 0.394563 25.2235C0.981595 21.8578 2.03055 18.6486 3.69782 15.6464C5.31938 12.7261 7.33069 10.1284 9.80873 7.87497C12.1641 5.73228 14.7744 4.0061 17.6663 2.68678C20.5413 1.37228 23.5438 0.563358 26.6835 0.214269C27.2657 0.149266 27.8792 0.252789 28.4422 0Z" fill="#ECDCD5"/>
<path d="M48.9987 53.0881C48.9506 53.3312 48.7388 53.4324 48.5704 53.5672C35.4825 63.9195 16.2957 61.5144 6.20305 48.2562C6.09479 48.1142 5.95525 47.9914 5.93359 47.7988C7.03789 45.2685 8.33706 42.8465 9.81426 40.5088C12.5762 36.1392 16.5675 33.7798 21.5982 33.0335C22.5052 32.8987 23.4195 32.8048 24.3313 32.6917C24.3 33.1419 24.2663 33.5921 24.235 34.0423C23.9848 33.9508 23.7587 33.5126 23.4748 33.8858C23.1957 34.2517 23.624 34.4058 23.8285 34.5743C24.8221 35.3881 25.9143 36.0453 27.098 36.5461C29.0757 37.3815 31.111 37.7161 33.2402 37.2611C33.4712 37.213 33.7695 37.1961 33.7455 36.8687C33.7166 36.4498 33.3701 36.6303 33.1392 36.6063C33.079 35.5301 33.0189 34.4515 32.9587 33.3754C32.9684 33.3056 32.9756 33.2357 32.9852 33.1659C35.2996 33.5054 37.5756 33.9965 39.8227 34.6754C42.2526 35.4073 43.9295 36.9409 45.1709 39.0836C46.8502 41.9822 47.75 45.1361 48.3563 48.3983C48.6498 49.9511 48.7845 51.5256 48.9987 53.0881Z" fill="#46467F"/>
<path d="M32.9635 33.3753C33.0237 34.4514 33.0838 35.53 33.1439 36.6062C29.7396 37.2658 26.8646 36.091 24.2398 34.0422C24.2711 33.592 24.3048 33.1417 24.3361 32.6915C24.4299 31.2374 24.5165 29.7833 24.6199 28.3291C24.6464 27.9487 24.6199 27.7802 24.1243 27.8139C21.6703 27.9825 19.6518 25.4449 20.2509 23.0013C20.3038 22.7895 20.3351 22.5728 20.376 22.3585C20.4867 22.1948 20.6021 22.0335 20.708 21.8674C21.4586 20.6877 22.4354 20.4036 23.7418 20.926C24.3264 21.1596 24.8774 21.5014 25.5534 21.5014C27.3169 21.5014 28.8278 20.8947 30.1029 19.6838C30.1992 20.1508 30.2882 20.6203 30.394 21.0849C30.4494 21.3305 30.4782 21.6531 30.8487 21.564C31.1663 21.4894 31.1062 21.2101 31.0605 20.9718C30.9835 20.5818 30.8945 20.1942 30.8247 19.8017C30.779 19.5562 30.6442 19.4141 30.4037 19.366C30.3579 18.8147 30.7814 18.3765 30.7669 17.8348C31.022 17.8781 31.2818 17.895 31.5176 18.0202C31.7221 18.1285 31.9194 18.1141 32.0156 17.8805C32.1118 17.6494 31.9627 17.505 31.7702 17.4063C31.4815 17.2594 31.1735 17.1872 30.8487 17.1848C30.7694 16.2145 30.7982 16.1447 31.6619 15.7451C33.0333 15.1119 34.5273 15.1601 35.7736 16.814C35.8072 17.0379 35.8385 17.2618 35.8722 17.4857C35.3189 17.1968 34.7511 17.0692 34.1448 17.3051C33.9547 17.3798 33.7502 17.4689 33.82 17.7265C33.8946 18.0033 34.0943 18.0154 34.3421 17.9383C34.7848 17.7963 35.2154 17.8372 35.5859 18.1406C35.7423 18.2681 35.9035 18.2898 36.0887 18.2633C36.837 21.2631 37.3855 24.2941 36.7046 27.3709C36.2475 29.4342 35.1047 30.975 32.8504 31.3746C30.4879 31.6154 28.4357 30.7126 26.3161 29.4679C26.9512 30.5561 27.6995 31.2639 28.592 31.8224C29.9297 32.6675 31.4093 33.1273 32.9635 33.3753ZM22.8685 23.9547C22.4499 24.039 22.1034 24.104 21.7594 24.1786C21.5501 24.2243 21.3504 24.323 21.3937 24.5686C21.4418 24.8431 21.6679 24.8816 21.9085 24.8334C22.2814 24.7564 22.6616 24.7082 23.02 24.5927C23.4242 24.4651 23.749 24.5084 24.0498 24.8238C24.2158 24.9971 24.4515 25.1825 24.6633 24.9273C24.8678 24.6818 24.6633 24.4867 24.466 24.3303C23.6119 23.6369 22.7554 22.9459 21.9013 22.255C21.7209 22.1105 21.5236 21.9685 21.3287 22.1972C21.1002 22.4693 21.3407 22.6233 21.5212 22.7822C21.947 23.1554 22.4426 23.4539 22.8685 23.9547ZM34.3589 22.438C34.3685 22.9821 34.2579 23.5045 34.0822 24.0197C34.0125 24.2219 34.0125 24.4242 34.2531 24.5205C34.4648 24.6047 34.6091 24.4867 34.6741 24.3014C35.1817 22.8809 35.1962 21.4918 34.3782 20.1677C34.2579 19.9727 34.087 19.7921 33.8416 19.9438C33.589 20.1003 33.6925 20.3097 33.8224 20.5095C34.2073 21.097 34.3709 21.7446 34.3589 22.438ZM32.3668 27.1085C32.6098 27.1278 32.8312 27.0676 32.8528 26.7931C32.8769 26.4994 32.6435 26.4561 32.4077 26.4368C31.6788 26.3815 31.1134 26.0709 30.7886 25.3896C30.6851 25.1729 30.5456 24.9947 30.2834 25.1392C30.0283 25.2836 30.1053 25.5027 30.2112 25.7122C30.6563 26.603 31.4165 27.0026 32.3668 27.1085ZM35.0301 19.7728C35.1192 20.1917 35.2226 20.6997 35.3381 21.2029C35.3766 21.3714 35.4945 21.499 35.6821 21.4677C35.8914 21.4316 35.9877 21.2679 35.9492 21.0681C35.8554 20.5601 35.7471 20.0521 35.6292 19.5489C35.5811 19.3467 35.4319 19.2528 35.2202 19.3082C35.0277 19.3588 35.0013 19.5128 35.0301 19.7728Z" fill="#F07D63"/>
<path d="M30.7633 17.8372C30.7777 18.3813 30.3543 18.8194 30.4 19.3684L30.3928 19.3611C30.3398 19.3924 30.2893 19.4213 30.2364 19.4526C30.1907 19.5297 30.1425 19.6091 30.0968 19.6861C28.8217 20.8971 27.3108 21.5038 25.5473 21.5038C24.8737 21.5038 24.3227 21.162 23.7357 20.9284C22.4293 20.406 21.4525 20.6877 20.7019 21.8698C20.596 22.0359 20.4806 22.1972 20.3699 22.3609C19.2608 20.7166 18.4596 18.9735 18.7965 16.9223C18.9937 15.7186 19.831 14.9096 20.7308 14.1946C22.6747 12.6466 24.9819 11.9388 27.3638 11.4236C27.8906 11.3104 28.4248 11.231 28.9589 11.1708C29.2596 11.1371 29.4713 10.9854 29.695 10.8097C31.0905 9.7022 32.5797 8.81623 34.4057 8.60919C36.6697 8.35399 37.9929 9.66368 37.6489 11.9267C37.3794 13.6866 36.6889 15.2997 35.7651 16.8188C34.5188 15.1624 33.0248 15.1167 31.6534 15.7499C30.7897 16.1495 30.7633 16.2169 30.8402 17.1896C30.8162 17.4038 30.7897 17.6205 30.7633 17.8372Z" fill="#FBB25B"/>
<path d="M32.9632 33.3752C31.409 33.1273 29.9294 32.6674 28.5845 31.8272C27.6896 31.2663 26.9437 30.5609 26.3086 29.4727C28.4282 30.7173 30.4804 31.6202 32.8429 31.3794C32.8911 31.9741 32.9416 32.5711 32.9897 33.1658C32.9801 33.2356 32.9729 33.3054 32.9632 33.3752Z" fill="#080504"/>
<path d="M36.0796 18.2659C35.8967 18.2924 35.7331 18.2707 35.5768 18.1431C35.2063 17.8398 34.7756 17.8013 34.3329 17.9409C34.0851 18.0203 33.8854 18.0083 33.8108 17.729C33.7411 17.4714 33.9456 17.3799 34.1356 17.3077C34.7419 17.0718 35.3121 17.1994 35.8631 17.4883C36.0892 17.7074 36.3274 17.9216 36.0796 18.2659Z" fill="#130B09"/>
<path d="M24.2386 34.0445C26.8634 36.0909 29.7384 37.2682 33.1428 36.6085C33.3737 36.6326 33.7178 36.452 33.749 36.8709C33.7731 37.1984 33.4748 37.2152 33.2438 37.2634C31.117 37.7184 29.0792 37.3837 27.1016 36.5483C25.9179 36.0476 24.8257 35.3903 23.832 34.5766C23.6275 34.408 23.1993 34.2564 23.4784 33.888C23.7599 33.5125 23.9884 33.953 24.2386 34.0445Z" fill="#F7F4F5"/>
<path d="M22.8675 23.9547C22.4417 23.4539 21.9461 23.1554 21.5202 22.7798C21.3398 22.6209 21.0992 22.4668 21.3278 22.1948C21.5226 21.9637 21.7199 22.1057 21.9004 22.2526C22.7544 22.9435 23.6109 23.6369 24.465 24.3278C24.6599 24.4867 24.8668 24.6793 24.6623 24.9249C24.4482 25.1801 24.2148 24.9971 24.0488 24.8214C23.7481 24.506 23.4233 24.4627 23.0191 24.5903C22.6582 24.7034 22.2781 24.754 21.9076 24.831C21.667 24.8816 21.4408 24.8406 21.3927 24.5662C21.3494 24.3206 21.5491 24.2219 21.7584 24.1762C22.1025 24.1039 22.4489 24.0389 22.8675 23.9547Z" fill="#100807"/>
<path d="M34.36 22.4405C34.3697 21.7447 34.2061 21.0971 33.8259 20.512C33.696 20.3122 33.595 20.1004 33.8452 19.9463C34.0906 19.7946 34.259 19.9728 34.3817 20.1702C35.1997 21.4967 35.1828 22.8834 34.6776 24.3039C34.6102 24.4893 34.4683 24.6072 34.2566 24.523C34.0136 24.4267 34.016 24.2244 34.0858 24.0222C34.2566 23.507 34.3673 22.9846 34.36 22.4405Z" fill="#120907"/>
<path d="M32.3619 27.1085C31.4116 27.0026 30.6537 26.6005 30.2086 25.7145C30.1028 25.5051 30.0258 25.286 30.2808 25.1415C30.543 24.9947 30.6826 25.1728 30.786 25.3919C31.1108 26.0733 31.6762 26.3838 32.4052 26.4392C32.641 26.456 32.8719 26.5018 32.8503 26.7955C32.8286 27.07 32.6073 27.1277 32.3619 27.1085Z" fill="#120908"/>
<path d="M30.0977 19.6839C30.1434 19.6069 30.1915 19.5274 30.2372 19.4504C30.2901 19.4191 30.3406 19.3902 30.3936 19.3589L30.4008 19.3661C30.6414 19.4167 30.7761 19.5563 30.8218 19.8019C30.8916 20.1943 30.9806 20.5819 31.0576 20.9719C31.1033 21.2103 31.1635 21.4895 30.8459 21.5642C30.4754 21.6508 30.4465 21.3282 30.3912 21.0851C30.2853 20.6204 30.1939 20.151 30.0977 19.6839Z" fill="#130A08"/>
<path d="M35.0296 19.7728C35.0008 19.5128 35.0248 19.3588 35.2221 19.3082C35.4338 19.2528 35.583 19.3491 35.6311 19.5489C35.749 20.0521 35.8572 20.5601 35.9511 21.0681C35.9872 21.2655 35.8933 21.4316 35.684 21.4677C35.4988 21.499 35.3785 21.3714 35.34 21.2029C35.2221 20.6997 35.121 20.1917 35.0296 19.7728Z" fill="#130A08"/>
<path d="M30.7656 17.8373C30.7921 17.6206 30.8186 17.4064 30.845 17.1897C31.1698 17.1921 31.4778 17.2619 31.7665 17.4112C31.9589 17.5099 32.1081 17.6543 32.0119 17.8855C31.9156 18.1166 31.7183 18.1334 31.5138 18.0251C31.2805 17.8975 31.0206 17.8782 30.7656 17.8373Z" fill="#1B0E0B"/>
<path d="M30.3947 19.3613C30.3417 19.3926 30.2912 19.4215 30.2383 19.4528C30.2912 19.4215 30.3417 19.3902 30.3947 19.3613Z" fill="#F07D63"/>
</g>
<defs>
<clipPath id="clip0_264_745">
<rect width="60" height="60" fill="white"/>
</clipPath>
</defs>
</svg>
