<svg width="60" height="60" viewBox="0 0 60 60" fill="none" xmlns="http://www.w3.org/2000/svg">
<g clip-path="url(#clip0_264_693)">
<path d="M0 33.3606C0 33.2394 0 33.1214 0 33.0002C0.165535 32.8407 0.159168 32.6812 0 32.5217C0 30.8406 0 29.1626 0 27.4815C0.146435 27.3603 0.149618 27.2423 0 27.1211C0 26.9998 0 26.8818 0 26.7606C0.480688 26.4767 0.270586 25.9599 0.324703 25.5771C0.72899 22.6679 1.59168 19.8958 2.84274 17.2545C4.55221 13.6498 6.8697 10.4886 9.84932 7.80903C12.0904 5.79616 14.5416 4.12781 17.2729 2.85821C20.2398 1.48014 23.3277 0.551864 26.5938 0.239247C26.7625 0.223297 26.9153 0.210538 26.944 0C27.1031 0 27.2623 0 27.4215 0C27.5424 0.149928 27.6602 0.146738 27.7812 0C29.2169 0 30.6558 0 32.0915 0C32.2124 0.146738 32.3302 0.149928 32.4512 0C32.6104 0 32.7695 0 32.9287 0C32.951 0.169068 33.0624 0.220107 33.2184 0.239247C33.8296 0.312616 34.4408 0.385985 35.0456 0.481684C37.9807 0.950609 40.7725 1.88527 43.4083 3.23462C46.5853 4.85831 49.4026 6.97645 51.8347 9.62093C53.4932 11.4233 54.9289 13.3755 56.1036 15.5096C58.2683 19.4428 59.5384 23.6472 59.7549 28.1514C59.7644 28.3332 59.7422 28.5246 59.9936 28.5629C59.9936 28.8436 59.9936 29.1244 59.9936 29.4019C59.7995 29.8421 59.7995 30.2823 59.9936 30.7225C59.9936 31.0032 59.9936 31.284 59.9936 31.5615C59.6721 31.6285 59.7676 31.8901 59.7581 32.091C59.7071 33.3032 59.548 34.5026 59.3156 35.6893C58.4784 39.9702 56.8357 43.9066 54.2827 47.4507C53.7765 48.1525 53.3118 48.8957 52.621 49.4476C50.4531 46.0567 48.2757 42.6657 46.1174 39.2684C45.3884 38.1201 44.6403 37.0099 43.4752 36.2316C40.2186 34.0624 36.5386 33.3447 32.7441 32.9874C32.7154 32.4323 32.6899 31.8741 32.6613 31.3191C33.091 31.1691 33.5526 31.1213 33.9697 30.9139C35.5932 30.1069 36.3699 28.6778 36.7424 27.0062C37.2867 24.5659 36.9843 22.1288 36.5896 19.698C36.3094 17.985 35.8383 16.3167 35.4149 14.6355C36.3795 13.905 36.7678 12.8236 37.1085 11.7423C37.6369 10.0516 37.2517 9.56032 35.5009 9.6305C34.0429 9.68792 32.6104 9.95587 31.1874 10.2717C30.7927 10.3578 30.4266 10.3706 30.0223 10.2685C28.2555 9.82827 26.4601 9.69749 24.6965 10.2174C21.9397 11.0309 19.931 12.6546 19.4631 15.6659C19.167 17.5767 19.74 19.3439 20.6664 21.0059C20.6409 21.0825 20.6346 21.1686 20.59 21.2324C18.7436 23.9279 21.0166 27.9281 24.063 27.4847C24.3846 27.4369 24.4132 27.6283 24.3909 27.8898C24.2349 29.6348 24.0853 31.3797 23.9357 33.1278C23.5601 33.1692 23.1844 33.1947 22.812 33.2522C20.1284 33.6637 17.483 34.2251 15.0478 35.4851C12.7939 36.6527 10.8075 38.2381 8.73515 39.6831C6.8888 40.9719 5.20798 42.4712 3.49533 43.929C3.43166 43.8556 3.35208 43.7886 3.30751 43.7057C1.8559 40.8443 0.856324 37.8393 0.34062 34.6653C0.270586 34.2283 0.452037 33.702 0 33.3606Z" fill="#E7E0EE"/>
<path d="M60.0011 30.7225C59.8069 30.2823 59.8069 29.8421 60.0011 29.4019C60.0011 29.8421 60.0011 30.2823 60.0011 30.7225Z" fill="#FEFEFE"/>
<path d="M0 32.5215C0.159168 32.681 0.165535 32.8405 0 33C0 32.8405 0 32.681 0 32.5215Z" fill="#FEFEFE"/>
<path d="M27.7855 0C27.6645 0.146738 27.5467 0.149928 27.4258 0C27.5467 0 27.6645 0 27.7855 0Z" fill="#FEFEFE"/>
<path d="M32.4535 0C32.3325 0.149928 32.2147 0.146738 32.0938 0C32.2147 0 32.3325 0 32.4535 0Z" fill="#FEFEFE"/>
<path d="M0 27.1211C0.149618 27.2423 0.146435 27.3603 0 27.4816C0 27.3603 0 27.2423 0 27.1211Z" fill="#FEFEFE"/>
<path d="M30.5334 59.9872C24.5996 60.0988 19.1051 58.59 14.0723 55.4415C9.63465 52.6662 6.19025 48.9403 3.64993 44.3691C3.57353 44.232 3.47803 44.098 3.49394 43.9257C5.20659 42.4679 6.88741 40.9686 8.73376 39.6799C10.8061 38.2316 12.7894 36.6494 15.0464 35.4819C17.4848 34.2219 20.127 33.6604 22.8106 33.2489C23.183 33.1915 23.5587 33.166 23.9343 33.1245C23.9439 33.1883 23.9534 33.2553 23.963 33.3191C23.8834 33.9986 24.0362 34.6685 24.0871 35.3415C24.1953 36.7674 24.3386 38.1902 24.6919 39.581C24.988 40.7358 25.3668 40.8347 26.2454 40.0116C27.0158 39.2907 27.713 38.5028 28.3783 37.6862C28.6584 38.2189 28.5884 38.8026 28.6425 39.3705C28.7921 40.9495 28.9481 42.5285 29.0945 44.1076C29.19 45.1347 29.2696 46.1651 29.3683 47.1922C29.5116 48.6915 29.6739 50.1908 29.814 51.6901C29.9509 53.1734 30.0527 54.6568 30.1992 56.1369C30.3297 57.4161 30.4984 58.6953 30.5334 59.9872Z" fill="#92B3E9"/>
<path d="M44.6917 56.0507C43.6826 56.7748 42.5397 57.2469 41.4096 57.7222C39.0349 58.7239 36.5614 59.3778 34.0147 59.7447C33.8587 59.767 33.6964 59.7479 33.5372 59.7511C33.5658 58.9312 33.3971 58.1306 33.2921 57.3235C33.0756 55.652 32.8528 53.9804 32.6267 52.3057C32.3721 50.4172 32.111 48.532 31.8564 46.6435C31.6304 44.972 31.4107 43.3004 31.1911 41.6257C31.0096 40.2285 30.8345 38.8313 30.6562 37.4341C30.8218 37.5425 30.9937 37.6446 31.1529 37.7595C32.1492 38.4804 33.1043 39.2651 34.1834 39.868C34.3489 39.9605 34.5336 40.1487 34.7246 40.0243C34.9411 39.8808 34.8392 39.6256 34.7946 39.4182C34.3903 37.4436 33.7186 35.552 33.0756 33.6476C33.0247 33.5009 33.0056 33.3095 32.7636 33.4211C32.7382 33.3828 32.7159 33.3414 32.6904 33.3031C32.7063 33.201 32.7254 33.0957 32.7414 32.9937C36.5359 33.3509 40.2191 34.0687 43.4756 36.2378C44.6408 37.0162 45.3888 38.1263 46.1178 39.2747C48.2762 42.672 50.4536 46.0597 52.6214 49.4539C52.0548 50.3598 51.2685 51.0712 50.5013 51.7889C49.0465 53.151 47.5026 54.4111 45.7931 55.4478C45.6244 55.5499 45.4684 55.6807 45.2583 55.6966C45.2551 55.636 45.2551 55.5754 45.2456 55.518C44.523 52.0888 43.7972 48.6596 43.0714 45.2335C42.9854 44.8252 42.8899 44.4169 42.7817 44.015C42.7339 43.8331 42.6225 43.6768 42.3997 43.7183C42.1768 43.763 42.1386 43.9448 42.1514 44.1362C42.1609 44.2734 42.1928 44.4105 42.2214 44.5477C42.4793 45.7758 42.7339 47.004 42.9981 48.2289C43.5648 50.8351 44.1282 53.4413 44.6917 56.0507Z" fill="#92B4E9"/>
<path d="M32.6971 33.3C32.7225 33.3383 32.7448 33.3798 32.7703 33.4181C32.471 34.6303 31.6147 35.3225 30.4719 35.5011C27.957 35.8967 25.665 35.4565 23.9683 33.316C23.9587 33.2522 23.9492 33.1852 23.9396 33.1214C24.0893 31.3765 24.2389 29.6316 24.3949 27.8835C24.4171 27.6251 24.3917 27.4337 24.067 27.4784C21.0237 27.925 18.7476 23.9247 20.5939 21.2292C20.6385 21.1654 20.6449 21.0793 20.6703 21.0027C21.3038 20.4445 22.0105 20.1861 22.87 20.3679C23.685 20.5402 24.4362 20.856 25.1079 21.3313C25.4772 21.5929 25.7128 21.5195 26.047 21.2866C28.1194 19.832 28.3995 17.7936 27.9093 15.5288C27.7947 15.0024 27.9188 14.961 28.3836 14.961C30.2427 14.9641 32.0954 14.8716 33.8781 14.2592C34.8108 13.9402 34.8076 13.9274 35.422 14.6356C35.8454 16.3167 36.3165 17.985 36.5967 19.698C36.9914 22.1288 37.2938 24.5659 36.7495 27.0062C36.377 28.6778 35.5971 30.1069 33.9768 30.914C33.5598 31.1213 33.1014 31.1691 32.6684 31.3191C30.456 31.418 28.4855 30.713 26.6487 29.5391C26.5309 29.4625 26.4163 29.2903 26.2285 29.4785C26.6009 30.1484 27.1071 30.7034 27.6992 31.1787C29.1635 32.3558 30.8698 32.9779 32.6971 33.3ZM32.1559 27.7463C32.4933 27.7431 32.8881 27.6347 33.1778 27.4656C33.6266 27.204 33.6362 26.952 33.1809 26.7032C32.6047 26.3906 32.0158 26.1099 31.4365 25.8068C31.0099 25.5835 30.8093 25.7685 30.7075 26.1737C30.4942 27.0318 31.1627 27.7591 32.1559 27.7463ZM22.8064 23.4207C22.4053 23.4207 22.1665 23.4175 21.9309 23.4207C21.724 23.4239 21.4725 23.4462 21.4693 23.6919C21.4662 24.0045 21.7527 23.9822 21.966 23.9566C22.7045 23.8641 23.4016 23.829 23.7805 24.668C23.8569 24.8403 24.0447 24.9296 24.2293 24.7733C24.3917 24.6361 24.3025 24.483 24.2039 24.349C23.5735 23.5228 22.9432 22.6998 22.3098 21.8768C22.2047 21.7396 22.0583 21.6375 21.8991 21.746C21.6922 21.8832 21.7972 22.0586 21.9086 22.2085C22.1729 22.5754 22.4435 22.9359 22.8064 23.4207ZM34.5275 23.7812C34.5307 22.9901 34.3206 22.2468 33.9991 21.5323C33.9004 21.3185 33.7858 21.0474 33.4802 21.1909C33.1618 21.3409 33.3369 21.5929 33.4261 21.8066C33.8303 22.7827 34.085 23.7748 33.7126 24.8211C33.633 25.0444 33.6553 25.2231 33.8908 25.306C34.1423 25.3921 34.2505 25.2103 34.3269 25.0125C34.4797 24.617 34.5307 24.2055 34.5275 23.7812ZM31.341 18.3519C31.5861 18.3902 31.7548 18.3551 31.8248 18.1477C31.8758 17.9978 31.8057 17.8798 31.6848 17.7873C31.1563 17.3917 29.7684 17.6979 29.4755 18.2753C29.3991 18.4284 29.3705 18.5816 29.5042 18.7155C29.6379 18.8463 29.8066 18.8623 29.9275 18.7187C30.335 18.2339 30.838 18.2051 31.341 18.3519ZM34.8681 17.5161C34.5434 17.5161 34.2887 17.6118 34.0691 17.7968C33.9577 17.8925 33.9099 18.0233 33.9863 18.1701C34.0595 18.3104 34.2028 18.4029 34.3269 18.3359C34.8809 18.0361 35.2597 18.253 35.6035 18.6932C35.7117 18.8304 35.8772 18.8527 36.0269 18.7283C36.2019 18.5847 36.1701 18.4189 36.0587 18.253C35.7626 17.8255 35.3679 17.5544 34.8681 17.5161ZM35.4825 20.8911C35.4666 20.8911 35.4507 20.8911 35.4379 20.8911C35.4379 20.6136 35.4443 20.3328 35.4348 20.0553C35.4284 19.8607 35.3488 19.6917 35.126 19.6917C34.8745 19.6917 34.779 19.8671 34.7822 20.0904C34.7949 20.588 34.8172 21.0825 34.849 21.5801C34.8617 21.7907 35.0018 21.9023 35.2119 21.8832C35.3997 21.864 35.4761 21.7269 35.4793 21.5482C35.4857 21.3281 35.4825 21.108 35.4825 20.8911ZM30.7966 20.6678C30.7902 20.6678 30.7839 20.6678 30.7775 20.6678C30.7775 20.4285 30.7807 20.1893 30.7775 19.9501C30.7743 19.7491 30.6915 19.5864 30.4751 19.5768C30.2554 19.5641 30.144 19.7172 30.144 19.9213C30.144 20.4413 30.1599 20.9581 30.1758 21.478C30.1822 21.6599 30.2936 21.7907 30.4719 21.7938C30.682 21.8002 30.7966 21.6599 30.7998 21.4493C30.7998 21.1846 30.7966 20.9262 30.7966 20.6678Z" fill="#F18361"/>
<path d="M35.4162 14.6387C34.8018 13.9305 34.805 13.9401 33.8723 14.2623C32.0896 14.8747 30.2369 14.9672 28.3778 14.9641C27.9162 14.9641 27.7921 15.0055 27.9035 15.5319C28.3937 17.7936 28.1136 19.8351 26.0412 21.2898C25.707 21.5258 25.4714 21.596 25.1021 21.3344C24.4304 20.8591 23.6824 20.5433 22.8642 20.371C22.0015 20.186 21.298 20.4444 20.6645 21.0058C19.7382 19.3439 19.1652 17.5766 19.4612 15.6658C19.926 12.6545 21.9347 11.0308 24.6947 10.2174C26.4582 9.69743 28.2537 9.82503 30.0204 10.2684C30.4279 10.3705 30.794 10.3609 31.1855 10.2716C32.6085 9.95582 34.041 9.68786 35.499 9.63044C37.2498 9.56345 37.635 10.0515 37.1066 11.7422C36.7692 12.83 36.3808 13.9114 35.4162 14.6387Z" fill="#020202"/>
<path d="M32.6952 33.2999C30.8679 32.9777 29.1648 32.3556 27.6973 31.1786C27.1052 30.7032 26.599 30.1482 26.2266 29.4783C26.4144 29.2901 26.529 29.4655 26.6468 29.5389C28.4836 30.7128 30.4541 31.421 32.6665 31.3189C32.6952 31.874 32.7206 32.4322 32.7493 32.9873C32.727 33.0957 32.7111 33.1978 32.6952 33.2999Z" fill="#090504"/>
<path d="M30.6596 37.4342C30.8379 38.8314 31.013 40.2286 31.1944 41.6258C31.4109 43.2974 31.6337 44.9721 31.8598 46.6436C32.1144 48.5321 32.3755 50.4174 32.6301 52.3058C32.8562 53.9774 33.079 55.6489 33.2955 57.3236C33.4005 58.1307 33.5692 58.9314 33.5406 59.7512C32.5474 59.9203 31.551 60.0415 30.5387 59.9873C30.5037 58.6953 30.3349 57.4161 30.2076 56.1338C30.0612 54.6536 29.9593 53.1671 29.8224 51.687C29.6823 50.1877 29.52 48.6884 29.3767 47.1891C29.2781 46.162 29.2017 45.1316 29.103 44.1044C28.9565 42.5254 28.8006 40.9464 28.6509 39.3673C28.5968 38.7995 28.6669 38.2126 28.3867 37.683C29.4149 36.3145 29.4149 36.3145 30.631 37.3832C30.6437 37.3959 30.6501 37.4151 30.6596 37.4342Z" fill="#A1C4F8"/>
<path d="M44.6916 56.0507C44.1281 53.4445 43.5647 50.8351 43.0012 48.2257C42.737 47.0008 42.4823 45.7726 42.2245 44.5445C42.1958 44.4073 42.164 44.2702 42.1544 44.133C42.1417 43.9416 42.1831 43.7598 42.4027 43.7151C42.6256 43.6704 42.737 43.8299 42.7847 44.0118C42.893 44.4169 42.9853 44.822 43.0744 45.2303C43.8002 48.6595 44.526 52.0888 45.2486 55.5148C45.2614 55.5722 45.2582 55.6328 45.2614 55.6934C45.1372 55.9199 44.9176 55.9901 44.6916 56.0507Z" fill="#E0EFFD"/>
<path d="M30.6588 37.4342C30.6492 37.4182 30.6429 37.3959 30.6301 37.3831C29.4109 36.3113 29.4109 36.3113 28.3859 37.683C27.7205 38.4996 27.0234 39.2875 26.253 40.0085C25.3712 40.8347 24.9924 40.7358 24.6995 39.5778C24.3462 38.187 24.2029 36.7611 24.0947 35.3384C24.0438 34.6653 23.8941 33.9986 23.9705 33.3159C25.6641 35.4564 27.9561 35.8934 30.4741 35.501C31.6202 35.3224 32.4733 34.6302 32.7725 33.418C33.0113 33.3063 33.0336 33.4977 33.0845 33.6445C33.7275 35.5457 34.3992 37.4405 34.8035 39.4151C34.8449 39.6225 34.9468 39.8777 34.7335 40.0212C34.5425 40.1488 34.3578 39.9574 34.1923 39.8649C33.1132 39.262 32.1581 38.4805 31.1618 37.7563C30.9962 37.6447 30.8243 37.5426 30.6588 37.4342Z" fill="#E4F2FD"/>
<path d="M32.1571 27.7463C31.1639 27.759 30.4922 27.0317 30.7086 26.1736C30.8105 25.7685 31.011 25.5835 31.4376 25.8068C32.017 26.113 32.6091 26.3937 33.1821 26.7032C33.6373 26.952 33.6278 27.204 33.1789 27.4656C32.8892 27.6346 32.4945 27.7431 32.1571 27.7463ZM32.3735 27.0636C32.0074 26.8148 31.7496 26.6107 31.3358 26.6138C31.5395 27.0955 31.8674 27.1338 32.3735 27.0636Z" fill="#0D0705"/>
<path d="M22.8051 23.4207C22.4453 22.9359 22.1716 22.5754 21.9042 22.2117C21.7928 22.0618 21.6877 21.8864 21.8946 21.7492C22.0538 21.6439 22.197 21.7428 22.3053 21.88C22.9388 22.703 23.5691 23.526 24.1994 24.3522C24.3012 24.483 24.3872 24.6361 24.2248 24.7765C24.0434 24.9328 23.8556 24.8435 23.776 24.6712C23.3972 23.8322 22.7 23.8673 21.9615 23.9598C21.7514 23.9854 21.4617 24.0109 21.4649 23.6951C21.4681 23.4495 21.7227 23.4271 21.9265 23.4239C22.1652 23.4176 22.404 23.4207 22.8051 23.4207Z" fill="#130A08"/>
<path d="M34.5272 23.7813C34.5304 24.2024 34.4795 24.6171 34.3267 25.0126C34.2503 25.2104 34.142 25.389 33.8905 25.3061C33.6518 25.2264 33.6327 25.0445 33.7123 24.8212C34.0847 23.7717 33.8301 22.7828 33.4258 21.8067C33.3366 21.593 33.1616 21.341 33.4799 21.191C33.7855 21.0475 33.9033 21.3186 33.9988 21.5324C34.3203 22.2469 34.5304 22.9902 34.5272 23.7813Z" fill="#100907"/>
<path d="M31.3413 18.3519C30.8383 18.2083 30.3321 18.2339 29.9279 18.7187C29.8101 18.8591 29.6414 18.8463 29.5045 18.7155C29.3708 18.5816 29.3962 18.4284 29.4758 18.2753C29.7687 17.6979 31.1566 17.3917 31.6851 17.7873C31.8092 17.8798 31.8761 17.9978 31.8251 18.1477C31.7583 18.3551 31.5864 18.3902 31.3413 18.3519Z" fill="#100907"/>
<path d="M34.8683 17.5161C35.3681 17.5512 35.7596 17.8255 36.0588 18.253C36.1734 18.4157 36.2021 18.5816 36.027 18.7283C35.8774 18.8527 35.7119 18.8272 35.6036 18.6932C35.2598 18.2562 34.881 18.0361 34.3271 18.3359C34.2029 18.4029 34.0597 18.3104 33.9865 18.1701C33.9101 18.0233 33.9578 17.8925 34.0692 17.7968C34.2889 17.615 34.5467 17.5161 34.8683 17.5161Z" fill="#130A08"/>
<path d="M35.4826 20.8908C35.4826 21.1109 35.4858 21.3279 35.4826 21.548C35.4794 21.7266 35.403 21.867 35.2152 21.8829C35.0051 21.902 34.865 21.7904 34.8523 21.5799C34.8205 21.0854 34.7982 20.5878 34.7854 20.0902C34.7791 19.8669 34.8778 19.6914 35.1292 19.6914C35.3521 19.6914 35.4317 19.8605 35.438 20.0551C35.4476 20.3326 35.4412 20.6101 35.4412 20.8908C35.454 20.8908 35.4699 20.8908 35.4826 20.8908Z" fill="#0D0705"/>
<path d="M30.7964 20.6678C30.7964 20.9262 30.7996 21.1878 30.7964 21.4462C30.7932 21.6567 30.6786 21.7971 30.4685 21.7907C30.2902 21.7875 30.1788 21.6567 30.1725 21.4749C30.1565 20.9549 30.1406 20.4381 30.1406 19.9182C30.1406 19.7172 30.2552 19.5641 30.4717 19.5737C30.6882 19.5864 30.7709 19.7459 30.7741 19.9469C30.7773 20.1861 30.7741 20.4254 30.7741 20.6646C30.7837 20.6678 30.79 20.6678 30.7964 20.6678Z" fill="#0B0604"/>
<path d="M32.3698 27.0636C31.8668 27.1338 31.5358 27.0955 31.332 26.6138C31.7459 26.6106 32.0037 26.8148 32.3698 27.0636Z" fill="#C46A4F"/>
</g>
<defs>
<clipPath id="clip0_264_693">
<rect width="60" height="60" fill="white"/>
</clipPath>
</defs>
</svg>
